<mxfile host="Electron" modified="2024-03-26T08:04:04.340Z" agent="Mozilla/5.0 (Windows NT 10.0; Win64; x64) AppleWebKit/537.36 (KHTML, like Gecko) draw.io/22.0.3 Chrome/114.0.5735.289 Electron/25.8.4 Safari/537.36" etag="PETOxzfoYpIr7UOLYoOH" version="22.0.3" type="device">
  <diagram name="Seite-1" id="1isSyMCuNGC0f9yKeJYa">
    <mxGraphModel dx="978" dy="571" grid="1" gridSize="10" guides="1" tooltips="1" connect="1" arrows="1" fold="1" page="1" pageScale="1" pageWidth="1169" pageHeight="827" math="0" shadow="0">
      <root>
        <mxCell id="0" />
        <mxCell id="1" parent="0" />
        <mxCell id="4LRfEP6yBbV0RVpsH5g9-151" value="" style="rounded=0;whiteSpace=wrap;html=1;fillColor=#ffff88;strokeColor=#36393d;" parent="1" vertex="1">
          <mxGeometry x="230" y="1670" width="260" height="180" as="geometry" />
        </mxCell>
        <mxCell id="4LRfEP6yBbV0RVpsH5g9-1" value="2" style="whiteSpace=wrap;html=1;aspect=fixed;fillColor=#fad9d5;strokeColor=#ae4132;" parent="1" vertex="1">
          <mxGeometry x="250" y="160" width="80" height="80" as="geometry" />
        </mxCell>
        <mxCell id="4LRfEP6yBbV0RVpsH5g9-2" value="3" style="whiteSpace=wrap;html=1;aspect=fixed;fillColor=#fad9d5;strokeColor=#ae4132;" parent="1" vertex="1">
          <mxGeometry x="340" y="160" width="80" height="80" as="geometry" />
        </mxCell>
        <mxCell id="4LRfEP6yBbV0RVpsH5g9-3" value="5" style="whiteSpace=wrap;html=1;aspect=fixed;fillColor=#fad9d5;strokeColor=#ae4132;" parent="1" vertex="1">
          <mxGeometry x="430" y="160" width="80" height="80" as="geometry" />
        </mxCell>
        <mxCell id="4LRfEP6yBbV0RVpsH5g9-4" value="7" style="whiteSpace=wrap;html=1;aspect=fixed;fillColor=#fad9d5;strokeColor=#ae4132;" parent="1" vertex="1">
          <mxGeometry x="520" y="160" width="80" height="80" as="geometry" />
        </mxCell>
        <mxCell id="4LRfEP6yBbV0RVpsH5g9-5" value="11" style="whiteSpace=wrap;html=1;aspect=fixed;fillColor=#fad9d5;strokeColor=#ae4132;" parent="1" vertex="1">
          <mxGeometry x="610" y="160" width="80" height="80" as="geometry" />
        </mxCell>
        <mxCell id="4LRfEP6yBbV0RVpsH5g9-6" value="0" style="text;html=1;strokeColor=none;fillColor=none;align=center;verticalAlign=middle;whiteSpace=wrap;rounded=0;" parent="1" vertex="1">
          <mxGeometry x="260" y="120" width="60" height="30" as="geometry" />
        </mxCell>
        <mxCell id="4LRfEP6yBbV0RVpsH5g9-7" value="1" style="text;html=1;strokeColor=none;fillColor=none;align=center;verticalAlign=middle;whiteSpace=wrap;rounded=0;" parent="1" vertex="1">
          <mxGeometry x="350" y="120" width="60" height="30" as="geometry" />
        </mxCell>
        <mxCell id="4LRfEP6yBbV0RVpsH5g9-8" value="2" style="text;html=1;strokeColor=none;fillColor=none;align=center;verticalAlign=middle;whiteSpace=wrap;rounded=0;" parent="1" vertex="1">
          <mxGeometry x="440" y="120" width="60" height="30" as="geometry" />
        </mxCell>
        <mxCell id="4LRfEP6yBbV0RVpsH5g9-9" value="3" style="text;html=1;strokeColor=none;fillColor=none;align=center;verticalAlign=middle;whiteSpace=wrap;rounded=0;" parent="1" vertex="1">
          <mxGeometry x="530" y="120" width="60" height="30" as="geometry" />
        </mxCell>
        <mxCell id="4LRfEP6yBbV0RVpsH5g9-10" value="4" style="text;html=1;strokeColor=none;fillColor=none;align=center;verticalAlign=middle;whiteSpace=wrap;rounded=0;" parent="1" vertex="1">
          <mxGeometry x="620" y="120" width="60" height="30" as="geometry" />
        </mxCell>
        <mxCell id="4LRfEP6yBbV0RVpsH5g9-11" value="numbers" style="text;html=1;strokeColor=none;fillColor=none;align=center;verticalAlign=middle;whiteSpace=wrap;rounded=0;" parent="1" vertex="1">
          <mxGeometry x="160" y="185" width="60" height="30" as="geometry" />
        </mxCell>
        <mxCell id="4LRfEP6yBbV0RVpsH5g9-12" value="&lt;div style=&quot;&quot;&gt;&lt;span style=&quot;background-color: initial;&quot;&gt;Syntax: Elementdatentyp[] name&lt;/span&gt;&lt;/div&gt;&lt;div style=&quot;&quot;&gt;&lt;br&gt;&lt;/div&gt;&lt;div style=&quot;&quot;&gt;&lt;span style=&quot;background-color: initial;&quot;&gt;int[] numbers&lt;/span&gt;&lt;/div&gt;&lt;div style=&quot;&quot;&gt;&lt;span style=&quot;background-color: initial;&quot;&gt;String[] names&lt;/span&gt;&lt;/div&gt;&lt;div style=&quot;&quot;&gt;&lt;span style=&quot;background-color: initial;&quot;&gt;Scanner[] scanners&lt;/span&gt;&lt;/div&gt;&lt;div style=&quot;&quot;&gt;&lt;br&gt;&lt;/div&gt;&lt;div style=&quot;&quot;&gt;&lt;span style=&quot;background-color: initial;&quot;&gt;Datentyp von numbers ist int[].&lt;/span&gt;&lt;/div&gt;&lt;div style=&quot;&quot;&gt;&lt;span style=&quot;background-color: initial;&quot;&gt;numbers[0] hat Datentyp int.&lt;/span&gt;&lt;/div&gt;&lt;div style=&quot;&quot;&gt;&lt;br&gt;&lt;/div&gt;&lt;div style=&quot;&quot;&gt;&lt;span style=&quot;background-color: initial;&quot;&gt;Datentyp von names ist String[].&lt;/span&gt;&lt;/div&gt;&lt;div style=&quot;&quot;&gt;&lt;span style=&quot;background-color: initial;&quot;&gt;Datentyp von names[0] ist String.&lt;/span&gt;&lt;/div&gt;&lt;div style=&quot;&quot;&gt;&lt;span style=&quot;background-color: initial;&quot;&gt;&lt;br&gt;&lt;/span&gt;&lt;/div&gt;&lt;div style=&quot;&quot;&gt;&lt;span style=&quot;background-color: initial;&quot;&gt;Datentyp von scanners ist Scanner[].&lt;/span&gt;&lt;/div&gt;&lt;div style=&quot;&quot;&gt;&lt;span style=&quot;background-color: initial;&quot;&gt;Datentyp von scanners[0] ist Scanner.&lt;/span&gt;&lt;/div&gt;&lt;div style=&quot;&quot;&gt;&lt;span style=&quot;background-color: initial;&quot;&gt;&lt;br&gt;&lt;/span&gt;&lt;/div&gt;&lt;div style=&quot;&quot;&gt;Wenn der Elementdatentyp ein primitiver Datentyp ist, dann kann eine unabhÃ¤ngige Kopie des Arrays erzeugt werden.&lt;/div&gt;" style="rounded=0;whiteSpace=wrap;html=1;fillColor=#ffe6cc;strokeColor=#d79b00;align=left;verticalAlign=top;" parent="1" vertex="1">
          <mxGeometry x="770" y="150" width="219" height="280" as="geometry" />
        </mxCell>
        <mxCell id="4LRfEP6yBbV0RVpsH5g9-27" style="edgeStyle=orthogonalEdgeStyle;rounded=0;orthogonalLoop=1;jettySize=auto;html=1;" parent="1" source="4LRfEP6yBbV0RVpsH5g9-13" target="4LRfEP6yBbV0RVpsH5g9-24" edge="1">
          <mxGeometry relative="1" as="geometry" />
        </mxCell>
        <mxCell id="4LRfEP6yBbV0RVpsH5g9-13" value="Referenz auf &quot;alice&quot;" style="whiteSpace=wrap;html=1;aspect=fixed;fillColor=#fad9d5;strokeColor=#ae4132;" parent="1" vertex="1">
          <mxGeometry x="250" y="450" width="80" height="80" as="geometry" />
        </mxCell>
        <mxCell id="4LRfEP6yBbV0RVpsH5g9-28" style="edgeStyle=orthogonalEdgeStyle;rounded=0;orthogonalLoop=1;jettySize=auto;html=1;entryX=0.75;entryY=0;entryDx=0;entryDy=0;" parent="1" source="4LRfEP6yBbV0RVpsH5g9-14" target="4LRfEP6yBbV0RVpsH5g9-24" edge="1">
          <mxGeometry relative="1" as="geometry" />
        </mxCell>
        <mxCell id="4LRfEP6yBbV0RVpsH5g9-14" value="Referenz auf &quot;alice&quot;" style="whiteSpace=wrap;html=1;aspect=fixed;fillColor=#fad9d5;strokeColor=#ae4132;" parent="1" vertex="1">
          <mxGeometry x="340" y="450" width="80" height="80" as="geometry" />
        </mxCell>
        <mxCell id="4LRfEP6yBbV0RVpsH5g9-29" style="edgeStyle=orthogonalEdgeStyle;rounded=0;orthogonalLoop=1;jettySize=auto;html=1;" parent="1" source="4LRfEP6yBbV0RVpsH5g9-15" target="4LRfEP6yBbV0RVpsH5g9-25" edge="1">
          <mxGeometry relative="1" as="geometry" />
        </mxCell>
        <mxCell id="4LRfEP6yBbV0RVpsH5g9-15" value="Referenz auf &quot;bob&quot;" style="whiteSpace=wrap;html=1;aspect=fixed;fillColor=#fad9d5;strokeColor=#ae4132;" parent="1" vertex="1">
          <mxGeometry x="430" y="450" width="80" height="80" as="geometry" />
        </mxCell>
        <mxCell id="4LRfEP6yBbV0RVpsH5g9-30" style="edgeStyle=orthogonalEdgeStyle;rounded=0;orthogonalLoop=1;jettySize=auto;html=1;" parent="1" source="4LRfEP6yBbV0RVpsH5g9-16" target="4LRfEP6yBbV0RVpsH5g9-26" edge="1">
          <mxGeometry relative="1" as="geometry" />
        </mxCell>
        <mxCell id="4LRfEP6yBbV0RVpsH5g9-16" value="Referenz auf &quot;Charlie&quot;" style="whiteSpace=wrap;html=1;aspect=fixed;fillColor=#fad9d5;strokeColor=#ae4132;" parent="1" vertex="1">
          <mxGeometry x="520" y="450" width="80" height="80" as="geometry" />
        </mxCell>
        <mxCell id="4LRfEP6yBbV0RVpsH5g9-17" value="null" style="whiteSpace=wrap;html=1;aspect=fixed;fillColor=#fad9d5;strokeColor=#ae4132;" parent="1" vertex="1">
          <mxGeometry x="610" y="450" width="80" height="80" as="geometry" />
        </mxCell>
        <mxCell id="4LRfEP6yBbV0RVpsH5g9-18" value="0" style="text;html=1;strokeColor=none;fillColor=none;align=center;verticalAlign=middle;whiteSpace=wrap;rounded=0;" parent="1" vertex="1">
          <mxGeometry x="260" y="420" width="60" height="30" as="geometry" />
        </mxCell>
        <mxCell id="4LRfEP6yBbV0RVpsH5g9-19" value="1" style="text;html=1;strokeColor=none;fillColor=none;align=center;verticalAlign=middle;whiteSpace=wrap;rounded=0;" parent="1" vertex="1">
          <mxGeometry x="350" y="420" width="60" height="30" as="geometry" />
        </mxCell>
        <mxCell id="4LRfEP6yBbV0RVpsH5g9-20" value="2" style="text;html=1;strokeColor=none;fillColor=none;align=center;verticalAlign=middle;whiteSpace=wrap;rounded=0;" parent="1" vertex="1">
          <mxGeometry x="440" y="420" width="60" height="30" as="geometry" />
        </mxCell>
        <mxCell id="4LRfEP6yBbV0RVpsH5g9-21" value="3" style="text;html=1;strokeColor=none;fillColor=none;align=center;verticalAlign=middle;whiteSpace=wrap;rounded=0;" parent="1" vertex="1">
          <mxGeometry x="530" y="420" width="60" height="30" as="geometry" />
        </mxCell>
        <mxCell id="4LRfEP6yBbV0RVpsH5g9-22" value="4" style="text;html=1;strokeColor=none;fillColor=none;align=center;verticalAlign=middle;whiteSpace=wrap;rounded=0;" parent="1" vertex="1">
          <mxGeometry x="620" y="420" width="60" height="30" as="geometry" />
        </mxCell>
        <mxCell id="4LRfEP6yBbV0RVpsH5g9-23" value="names" style="text;html=1;strokeColor=none;fillColor=none;align=center;verticalAlign=middle;whiteSpace=wrap;rounded=0;" parent="1" vertex="1">
          <mxGeometry x="160" y="475" width="60" height="30" as="geometry" />
        </mxCell>
        <mxCell id="4LRfEP6yBbV0RVpsH5g9-24" value="&quot;alice wonderland&quot;" style="rounded=1;whiteSpace=wrap;html=1;fillColor=#b1ddf0;strokeColor=#10739e;" parent="1" vertex="1">
          <mxGeometry x="250" y="587" width="120" height="60" as="geometry" />
        </mxCell>
        <mxCell id="4LRfEP6yBbV0RVpsH5g9-25" value="&quot;bob ross&quot;" style="rounded=1;whiteSpace=wrap;html=1;fillColor=#b1ddf0;strokeColor=#10739e;" parent="1" vertex="1">
          <mxGeometry x="410" y="587" width="120" height="60" as="geometry" />
        </mxCell>
        <mxCell id="4LRfEP6yBbV0RVpsH5g9-26" value="&quot;charlie&quot;" style="rounded=1;whiteSpace=wrap;html=1;fillColor=#b1ddf0;strokeColor=#10739e;" parent="1" vertex="1">
          <mxGeometry x="580" y="587" width="120" height="60" as="geometry" />
        </mxCell>
        <mxCell id="4LRfEP6yBbV0RVpsH5g9-31" value="&lt;div style=&quot;&quot;&gt;Wenn der Elementdatentyp kein primitiver Datentyp ist, stehen in den &quot;Zellen&quot; des Arrays lediglich Referenzen auf die Datenobjekte. Eine Zelle kann auch den Wert null haben, was bedeutet, dass diese Zelle kein Datenobjekt referenziert.&lt;/div&gt;&lt;div style=&quot;&quot;&gt;&lt;br&gt;&lt;/div&gt;&lt;div style=&quot;&quot;&gt;&lt;br&gt;&lt;/div&gt;" style="rounded=0;whiteSpace=wrap;html=1;fillColor=#ffe6cc;strokeColor=#d79b00;align=left;verticalAlign=top;" parent="1" vertex="1">
          <mxGeometry x="770" y="450" width="219" height="137" as="geometry" />
        </mxCell>
        <mxCell id="4LRfEP6yBbV0RVpsH5g9-69" style="edgeStyle=orthogonalEdgeStyle;rounded=0;orthogonalLoop=1;jettySize=auto;html=1;" parent="1" source="4LRfEP6yBbV0RVpsH5g9-33" target="4LRfEP6yBbV0RVpsH5g9-24" edge="1">
          <mxGeometry relative="1" as="geometry" />
        </mxCell>
        <mxCell id="4LRfEP6yBbV0RVpsH5g9-33" value="Referenz auf &quot;alice&quot;" style="whiteSpace=wrap;html=1;aspect=fixed;fillColor=#d5e8d4;strokeColor=#82b366;" parent="1" vertex="1">
          <mxGeometry x="250" y="727" width="80" height="80" as="geometry" />
        </mxCell>
        <mxCell id="4LRfEP6yBbV0RVpsH5g9-51" style="edgeStyle=orthogonalEdgeStyle;rounded=0;orthogonalLoop=1;jettySize=auto;html=1;entryX=0.75;entryY=1;entryDx=0;entryDy=0;" parent="1" source="4LRfEP6yBbV0RVpsH5g9-35" target="4LRfEP6yBbV0RVpsH5g9-24" edge="1">
          <mxGeometry relative="1" as="geometry" />
        </mxCell>
        <mxCell id="4LRfEP6yBbV0RVpsH5g9-35" value="Referenz auf &quot;alice&quot;" style="whiteSpace=wrap;html=1;aspect=fixed;fillColor=#d5e8d4;strokeColor=#82b366;" parent="1" vertex="1">
          <mxGeometry x="340" y="727" width="80" height="80" as="geometry" />
        </mxCell>
        <mxCell id="4LRfEP6yBbV0RVpsH5g9-52" style="edgeStyle=orthogonalEdgeStyle;rounded=0;orthogonalLoop=1;jettySize=auto;html=1;" parent="1" source="4LRfEP6yBbV0RVpsH5g9-37" target="4LRfEP6yBbV0RVpsH5g9-25" edge="1">
          <mxGeometry relative="1" as="geometry" />
        </mxCell>
        <mxCell id="4LRfEP6yBbV0RVpsH5g9-37" value="Referenz auf &quot;bob&quot;" style="whiteSpace=wrap;html=1;aspect=fixed;fillColor=#d5e8d4;strokeColor=#82b366;" parent="1" vertex="1">
          <mxGeometry x="430" y="727" width="80" height="80" as="geometry" />
        </mxCell>
        <mxCell id="4LRfEP6yBbV0RVpsH5g9-53" style="edgeStyle=orthogonalEdgeStyle;rounded=0;orthogonalLoop=1;jettySize=auto;html=1;" parent="1" source="4LRfEP6yBbV0RVpsH5g9-39" target="4LRfEP6yBbV0RVpsH5g9-26" edge="1">
          <mxGeometry relative="1" as="geometry" />
        </mxCell>
        <mxCell id="4LRfEP6yBbV0RVpsH5g9-39" value="Referenz auf &quot;Charlie&quot;" style="whiteSpace=wrap;html=1;aspect=fixed;fillColor=#d5e8d4;strokeColor=#82b366;" parent="1" vertex="1">
          <mxGeometry x="520" y="727" width="80" height="80" as="geometry" />
        </mxCell>
        <mxCell id="4LRfEP6yBbV0RVpsH5g9-40" value="null" style="whiteSpace=wrap;html=1;aspect=fixed;fillColor=#d5e8d4;strokeColor=#82b366;" parent="1" vertex="1">
          <mxGeometry x="610" y="727" width="80" height="80" as="geometry" />
        </mxCell>
        <mxCell id="4LRfEP6yBbV0RVpsH5g9-41" value="0" style="text;html=1;strokeColor=none;fillColor=none;align=center;verticalAlign=middle;whiteSpace=wrap;rounded=0;" parent="1" vertex="1">
          <mxGeometry x="260" y="814" width="60" height="30" as="geometry" />
        </mxCell>
        <mxCell id="4LRfEP6yBbV0RVpsH5g9-42" value="1" style="text;html=1;strokeColor=none;fillColor=none;align=center;verticalAlign=middle;whiteSpace=wrap;rounded=0;" parent="1" vertex="1">
          <mxGeometry x="350" y="814" width="60" height="30" as="geometry" />
        </mxCell>
        <mxCell id="4LRfEP6yBbV0RVpsH5g9-43" value="2" style="text;html=1;strokeColor=none;fillColor=none;align=center;verticalAlign=middle;whiteSpace=wrap;rounded=0;" parent="1" vertex="1">
          <mxGeometry x="440" y="814" width="60" height="30" as="geometry" />
        </mxCell>
        <mxCell id="4LRfEP6yBbV0RVpsH5g9-44" value="3" style="text;html=1;strokeColor=none;fillColor=none;align=center;verticalAlign=middle;whiteSpace=wrap;rounded=0;" parent="1" vertex="1">
          <mxGeometry x="530" y="814" width="60" height="30" as="geometry" />
        </mxCell>
        <mxCell id="4LRfEP6yBbV0RVpsH5g9-45" value="4" style="text;html=1;strokeColor=none;fillColor=none;align=center;verticalAlign=middle;whiteSpace=wrap;rounded=0;" parent="1" vertex="1">
          <mxGeometry x="620" y="814" width="60" height="30" as="geometry" />
        </mxCell>
        <mxCell id="4LRfEP6yBbV0RVpsH5g9-46" value="Clone von&lt;br&gt;names" style="text;html=1;strokeColor=none;fillColor=none;align=center;verticalAlign=middle;whiteSpace=wrap;rounded=0;" parent="1" vertex="1">
          <mxGeometry x="160" y="752" width="60" height="30" as="geometry" />
        </mxCell>
        <mxCell id="4LRfEP6yBbV0RVpsH5g9-54" value="2" style="whiteSpace=wrap;html=1;aspect=fixed;fillColor=#d5e8d4;strokeColor=#82b366;" parent="1" vertex="1">
          <mxGeometry x="250" y="270" width="80" height="80" as="geometry" />
        </mxCell>
        <mxCell id="4LRfEP6yBbV0RVpsH5g9-55" value="3" style="whiteSpace=wrap;html=1;aspect=fixed;fillColor=#d5e8d4;strokeColor=#82b366;" parent="1" vertex="1">
          <mxGeometry x="340" y="270" width="80" height="80" as="geometry" />
        </mxCell>
        <mxCell id="4LRfEP6yBbV0RVpsH5g9-56" value="5" style="whiteSpace=wrap;html=1;aspect=fixed;fillColor=#d5e8d4;strokeColor=#82b366;" parent="1" vertex="1">
          <mxGeometry x="430" y="270" width="80" height="80" as="geometry" />
        </mxCell>
        <mxCell id="4LRfEP6yBbV0RVpsH5g9-57" value="7" style="whiteSpace=wrap;html=1;aspect=fixed;fillColor=#d5e8d4;strokeColor=#82b366;" parent="1" vertex="1">
          <mxGeometry x="520" y="270" width="80" height="80" as="geometry" />
        </mxCell>
        <mxCell id="4LRfEP6yBbV0RVpsH5g9-58" value="11" style="whiteSpace=wrap;html=1;aspect=fixed;fillColor=#d5e8d4;strokeColor=#82b366;" parent="1" vertex="1">
          <mxGeometry x="610" y="270" width="80" height="80" as="geometry" />
        </mxCell>
        <mxCell id="4LRfEP6yBbV0RVpsH5g9-59" value="0" style="text;html=1;strokeColor=none;fillColor=none;align=center;verticalAlign=middle;whiteSpace=wrap;rounded=0;" parent="1" vertex="1">
          <mxGeometry x="260" y="350" width="60" height="30" as="geometry" />
        </mxCell>
        <mxCell id="4LRfEP6yBbV0RVpsH5g9-60" value="1" style="text;html=1;strokeColor=none;fillColor=none;align=center;verticalAlign=middle;whiteSpace=wrap;rounded=0;" parent="1" vertex="1">
          <mxGeometry x="350" y="350" width="60" height="30" as="geometry" />
        </mxCell>
        <mxCell id="4LRfEP6yBbV0RVpsH5g9-61" value="2" style="text;html=1;strokeColor=none;fillColor=none;align=center;verticalAlign=middle;whiteSpace=wrap;rounded=0;" parent="1" vertex="1">
          <mxGeometry x="440" y="350" width="60" height="30" as="geometry" />
        </mxCell>
        <mxCell id="4LRfEP6yBbV0RVpsH5g9-62" value="3" style="text;html=1;strokeColor=none;fillColor=none;align=center;verticalAlign=middle;whiteSpace=wrap;rounded=0;" parent="1" vertex="1">
          <mxGeometry x="530" y="350" width="60" height="30" as="geometry" />
        </mxCell>
        <mxCell id="4LRfEP6yBbV0RVpsH5g9-63" value="4" style="text;html=1;strokeColor=none;fillColor=none;align=center;verticalAlign=middle;whiteSpace=wrap;rounded=0;" parent="1" vertex="1">
          <mxGeometry x="620" y="350" width="60" height="30" as="geometry" />
        </mxCell>
        <mxCell id="4LRfEP6yBbV0RVpsH5g9-64" value="Kopie von numbers" style="text;html=1;strokeColor=none;fillColor=none;align=center;verticalAlign=middle;whiteSpace=wrap;rounded=0;" parent="1" vertex="1">
          <mxGeometry x="160" y="295" width="60" height="30" as="geometry" />
        </mxCell>
        <mxCell id="4LRfEP6yBbV0RVpsH5g9-65" value="&lt;div style=&quot;&quot;&gt;Wenn wir eine Kopie (Clone) eines Arrays erzeugen, dann werden die Zellen 1:1 kopiert. Ist der Elementdatentyp kein primitiver Datentyp, wird nicht das Datenobjekt selbst kopiert, sondern nur die Referenz darauf. Original-Array und Kopie-Array verweisen also auf dieselben Datenobjekte. Man sagt: Das kopierte Array ist eine Shallow-Copy des Originals. WÃ¼rden die Datenobjekte mitkopiert, sprÃ¤che man von einer Deep Copy.&lt;/div&gt;" style="rounded=0;whiteSpace=wrap;html=1;fillColor=#ffe6cc;strokeColor=#d79b00;align=left;verticalAlign=top;" parent="1" vertex="1">
          <mxGeometry x="770" y="600" width="219" height="210" as="geometry" />
        </mxCell>
        <mxCell id="4LRfEP6yBbV0RVpsH5g9-75" style="edgeStyle=orthogonalEdgeStyle;rounded=0;orthogonalLoop=1;jettySize=auto;html=1;" parent="1" source="4LRfEP6yBbV0RVpsH5g9-70" target="4LRfEP6yBbV0RVpsH5g9-74" edge="1">
          <mxGeometry relative="1" as="geometry" />
        </mxCell>
        <mxCell id="4LRfEP6yBbV0RVpsH5g9-70" value="Referenz auf &quot;alice&quot;" style="whiteSpace=wrap;html=1;aspect=fixed;fillColor=#d5e8d4;strokeColor=#82b366;" parent="1" vertex="1">
          <mxGeometry x="260" y="890" width="80" height="80" as="geometry" />
        </mxCell>
        <mxCell id="4LRfEP6yBbV0RVpsH5g9-71" value="x" style="text;html=1;strokeColor=none;fillColor=none;align=center;verticalAlign=middle;whiteSpace=wrap;rounded=0;" parent="1" vertex="1">
          <mxGeometry x="270" y="860" width="60" height="30" as="geometry" />
        </mxCell>
        <mxCell id="4LRfEP6yBbV0RVpsH5g9-76" style="edgeStyle=orthogonalEdgeStyle;rounded=0;orthogonalLoop=1;jettySize=auto;html=1;entryX=0.75;entryY=0;entryDx=0;entryDy=0;" parent="1" source="4LRfEP6yBbV0RVpsH5g9-72" target="4LRfEP6yBbV0RVpsH5g9-74" edge="1">
          <mxGeometry relative="1" as="geometry" />
        </mxCell>
        <mxCell id="4LRfEP6yBbV0RVpsH5g9-72" value="Referenz auf &quot;alice&quot;" style="whiteSpace=wrap;html=1;aspect=fixed;fillColor=#f8cecc;strokeColor=#b85450;" parent="1" vertex="1">
          <mxGeometry x="370" y="890" width="80" height="80" as="geometry" />
        </mxCell>
        <mxCell id="4LRfEP6yBbV0RVpsH5g9-73" value="y" style="text;html=1;strokeColor=none;fillColor=none;align=center;verticalAlign=middle;whiteSpace=wrap;rounded=0;" parent="1" vertex="1">
          <mxGeometry x="380" y="860" width="60" height="30" as="geometry" />
        </mxCell>
        <mxCell id="4LRfEP6yBbV0RVpsH5g9-74" value="&quot;alice wonderland&quot;" style="rounded=1;whiteSpace=wrap;html=1;fillColor=#b1ddf0;strokeColor=#10739e;" parent="1" vertex="1">
          <mxGeometry x="290" y="1020" width="120" height="60" as="geometry" />
        </mxCell>
        <mxCell id="4LRfEP6yBbV0RVpsH5g9-78" value="123" style="whiteSpace=wrap;html=1;aspect=fixed;fillColor=#d5e8d4;strokeColor=#82b366;" parent="1" vertex="1">
          <mxGeometry x="400" y="1150" width="80" height="80" as="geometry" />
        </mxCell>
        <mxCell id="4LRfEP6yBbV0RVpsH5g9-79" value="u" style="text;html=1;strokeColor=none;fillColor=none;align=center;verticalAlign=middle;whiteSpace=wrap;rounded=0;" parent="1" vertex="1">
          <mxGeometry x="410" y="1120" width="60" height="30" as="geometry" />
        </mxCell>
        <mxCell id="4LRfEP6yBbV0RVpsH5g9-81" value="123" style="whiteSpace=wrap;html=1;aspect=fixed;fillColor=#f8cecc;strokeColor=#b85450;" parent="1" vertex="1">
          <mxGeometry x="510" y="1150" width="80" height="80" as="geometry" />
        </mxCell>
        <mxCell id="4LRfEP6yBbV0RVpsH5g9-82" value="v" style="text;html=1;strokeColor=none;fillColor=none;align=center;verticalAlign=middle;whiteSpace=wrap;rounded=0;" parent="1" vertex="1">
          <mxGeometry x="520" y="1120" width="60" height="30" as="geometry" />
        </mxCell>
        <mxCell id="4LRfEP6yBbV0RVpsH5g9-91" value="primes" style="text;html=1;strokeColor=none;fillColor=none;align=center;verticalAlign=middle;whiteSpace=wrap;rounded=0;" parent="1" vertex="1">
          <mxGeometry x="230" y="1430" width="60" height="30" as="geometry" />
        </mxCell>
        <mxCell id="4LRfEP6yBbV0RVpsH5g9-92" value="numbers" style="text;html=1;strokeColor=none;fillColor=none;align=center;verticalAlign=middle;whiteSpace=wrap;rounded=0;" parent="1" vertex="1">
          <mxGeometry x="230" y="1300" width="60" height="30" as="geometry" />
        </mxCell>
        <mxCell id="4LRfEP6yBbV0RVpsH5g9-103" style="edgeStyle=orthogonalEdgeStyle;rounded=0;orthogonalLoop=1;jettySize=auto;html=1;entryX=0;entryY=0.5;entryDx=0;entryDy=0;" parent="1" source="4LRfEP6yBbV0RVpsH5g9-96" target="4LRfEP6yBbV0RVpsH5g9-85" edge="1">
          <mxGeometry relative="1" as="geometry">
            <Array as="points">
              <mxPoint x="350" y="1500" />
              <mxPoint x="350" y="1430" />
            </Array>
          </mxGeometry>
        </mxCell>
        <mxCell id="4LRfEP6yBbV0RVpsH5g9-96" value="Referenz auf Array" style="whiteSpace=wrap;html=1;aspect=fixed;fillColor=#f8cecc;strokeColor=#b85450;" parent="1" vertex="1">
          <mxGeometry x="220" y="1460" width="80" height="80" as="geometry" />
        </mxCell>
        <mxCell id="4LRfEP6yBbV0RVpsH5g9-112" style="edgeStyle=orthogonalEdgeStyle;rounded=0;orthogonalLoop=1;jettySize=auto;html=1;" parent="1" source="4LRfEP6yBbV0RVpsH5g9-98" target="4LRfEP6yBbV0RVpsH5g9-85" edge="1">
          <mxGeometry relative="1" as="geometry" />
        </mxCell>
        <mxCell id="4LRfEP6yBbV0RVpsH5g9-98" value="Referenz auf Array" style="whiteSpace=wrap;html=1;aspect=fixed;fillColor=#d5e8d4;strokeColor=#82b366;" parent="1" vertex="1">
          <mxGeometry x="220" y="1330" width="80" height="80" as="geometry" />
        </mxCell>
        <mxCell id="4LRfEP6yBbV0RVpsH5g9-84" value="" style="shape=table;startSize=0;container=1;collapsible=0;childLayout=tableLayout;fillColor=#b1ddf0;strokeColor=#10739e;" parent="1" vertex="1">
          <mxGeometry x="400" y="1410" width="300" height="40" as="geometry" />
        </mxCell>
        <mxCell id="4LRfEP6yBbV0RVpsH5g9-85" value="" style="shape=tableRow;horizontal=0;startSize=0;swimlaneHead=0;swimlaneBody=0;strokeColor=inherit;top=0;left=0;bottom=0;right=0;collapsible=0;dropTarget=0;fillColor=none;points=[[0,0.5],[1,0.5]];portConstraint=eastwest;" parent="4LRfEP6yBbV0RVpsH5g9-84" vertex="1">
          <mxGeometry width="300" height="40" as="geometry" />
        </mxCell>
        <mxCell id="4LRfEP6yBbV0RVpsH5g9-86" value="2" style="shape=partialRectangle;html=1;whiteSpace=wrap;connectable=0;strokeColor=inherit;overflow=hidden;fillColor=none;top=0;left=0;bottom=0;right=0;pointerEvents=1;" parent="4LRfEP6yBbV0RVpsH5g9-85" vertex="1">
          <mxGeometry width="60" height="40" as="geometry">
            <mxRectangle width="60" height="40" as="alternateBounds" />
          </mxGeometry>
        </mxCell>
        <mxCell id="4LRfEP6yBbV0RVpsH5g9-87" value="3" style="shape=partialRectangle;html=1;whiteSpace=wrap;connectable=0;strokeColor=inherit;overflow=hidden;fillColor=none;top=0;left=0;bottom=0;right=0;pointerEvents=1;" parent="4LRfEP6yBbV0RVpsH5g9-85" vertex="1">
          <mxGeometry x="60" width="60" height="40" as="geometry">
            <mxRectangle width="60" height="40" as="alternateBounds" />
          </mxGeometry>
        </mxCell>
        <mxCell id="4LRfEP6yBbV0RVpsH5g9-88" value="5" style="shape=partialRectangle;html=1;whiteSpace=wrap;connectable=0;strokeColor=inherit;overflow=hidden;fillColor=none;top=0;left=0;bottom=0;right=0;pointerEvents=1;" parent="4LRfEP6yBbV0RVpsH5g9-85" vertex="1">
          <mxGeometry x="120" width="60" height="40" as="geometry">
            <mxRectangle width="60" height="40" as="alternateBounds" />
          </mxGeometry>
        </mxCell>
        <mxCell id="4LRfEP6yBbV0RVpsH5g9-89" value="7" style="shape=partialRectangle;html=1;whiteSpace=wrap;connectable=0;strokeColor=inherit;overflow=hidden;fillColor=none;top=0;left=0;bottom=0;right=0;pointerEvents=1;" parent="4LRfEP6yBbV0RVpsH5g9-85" vertex="1">
          <mxGeometry x="180" width="60" height="40" as="geometry">
            <mxRectangle width="60" height="40" as="alternateBounds" />
          </mxGeometry>
        </mxCell>
        <mxCell id="4LRfEP6yBbV0RVpsH5g9-90" value="11" style="shape=partialRectangle;html=1;whiteSpace=wrap;connectable=0;strokeColor=inherit;overflow=hidden;fillColor=none;top=0;left=0;bottom=0;right=0;pointerEvents=1;" parent="4LRfEP6yBbV0RVpsH5g9-85" vertex="1">
          <mxGeometry x="240" width="60" height="40" as="geometry">
            <mxRectangle width="60" height="40" as="alternateBounds" />
          </mxGeometry>
        </mxCell>
        <mxCell id="4LRfEP6yBbV0RVpsH5g9-104" value="" style="shape=table;startSize=0;container=1;collapsible=0;childLayout=tableLayout;" parent="1" vertex="1">
          <mxGeometry x="400" y="1350" width="240" height="40" as="geometry" />
        </mxCell>
        <mxCell id="4LRfEP6yBbV0RVpsH5g9-105" value="" style="shape=tableRow;horizontal=0;startSize=0;swimlaneHead=0;swimlaneBody=0;strokeColor=inherit;top=0;left=0;bottom=0;right=0;collapsible=0;dropTarget=0;fillColor=none;points=[[0,0.5],[1,0.5]];portConstraint=eastwest;" parent="4LRfEP6yBbV0RVpsH5g9-104" vertex="1">
          <mxGeometry width="240" height="40" as="geometry" />
        </mxCell>
        <mxCell id="4LRfEP6yBbV0RVpsH5g9-106" value="13" style="shape=partialRectangle;html=1;whiteSpace=wrap;connectable=0;strokeColor=inherit;overflow=hidden;fillColor=none;top=0;left=0;bottom=0;right=0;pointerEvents=1;" parent="4LRfEP6yBbV0RVpsH5g9-105" vertex="1">
          <mxGeometry width="60" height="40" as="geometry">
            <mxRectangle width="60" height="40" as="alternateBounds" />
          </mxGeometry>
        </mxCell>
        <mxCell id="4LRfEP6yBbV0RVpsH5g9-107" value="17" style="shape=partialRectangle;html=1;whiteSpace=wrap;connectable=0;strokeColor=inherit;overflow=hidden;fillColor=none;top=0;left=0;bottom=0;right=0;pointerEvents=1;" parent="4LRfEP6yBbV0RVpsH5g9-105" vertex="1">
          <mxGeometry x="60" width="60" height="40" as="geometry">
            <mxRectangle width="60" height="40" as="alternateBounds" />
          </mxGeometry>
        </mxCell>
        <mxCell id="4LRfEP6yBbV0RVpsH5g9-108" value="19" style="shape=partialRectangle;html=1;whiteSpace=wrap;connectable=0;strokeColor=inherit;overflow=hidden;fillColor=none;top=0;left=0;bottom=0;right=0;pointerEvents=1;" parent="4LRfEP6yBbV0RVpsH5g9-105" vertex="1">
          <mxGeometry x="120" width="60" height="40" as="geometry">
            <mxRectangle width="60" height="40" as="alternateBounds" />
          </mxGeometry>
        </mxCell>
        <mxCell id="4LRfEP6yBbV0RVpsH5g9-109" value="23" style="shape=partialRectangle;html=1;whiteSpace=wrap;connectable=0;strokeColor=inherit;overflow=hidden;fillColor=none;top=0;left=0;bottom=0;right=0;pointerEvents=1;" parent="4LRfEP6yBbV0RVpsH5g9-105" vertex="1">
          <mxGeometry x="180" width="60" height="40" as="geometry">
            <mxRectangle width="60" height="40" as="alternateBounds" />
          </mxGeometry>
        </mxCell>
        <mxCell id="4LRfEP6yBbV0RVpsH5g9-114" value="" style="shape=table;startSize=0;container=1;collapsible=0;childLayout=tableLayout;fillColor=#b1ddf0;strokeColor=#10739e;" parent="1" vertex="1">
          <mxGeometry x="240" y="1680" width="240" height="40" as="geometry" />
        </mxCell>
        <mxCell id="4LRfEP6yBbV0RVpsH5g9-115" value="" style="shape=tableRow;horizontal=0;startSize=0;swimlaneHead=0;swimlaneBody=0;strokeColor=inherit;top=0;left=0;bottom=0;right=0;collapsible=0;dropTarget=0;fillColor=none;points=[[0,0.5],[1,0.5]];portConstraint=eastwest;" parent="4LRfEP6yBbV0RVpsH5g9-114" vertex="1">
          <mxGeometry width="240" height="40" as="geometry" />
        </mxCell>
        <mxCell id="4LRfEP6yBbV0RVpsH5g9-116" value="5" style="shape=partialRectangle;html=1;whiteSpace=wrap;connectable=0;strokeColor=inherit;overflow=hidden;fillColor=none;top=0;left=0;bottom=0;right=0;pointerEvents=1;" parent="4LRfEP6yBbV0RVpsH5g9-115" vertex="1">
          <mxGeometry width="60" height="40" as="geometry">
            <mxRectangle width="60" height="40" as="alternateBounds" />
          </mxGeometry>
        </mxCell>
        <mxCell id="4LRfEP6yBbV0RVpsH5g9-117" value="14" style="shape=partialRectangle;html=1;whiteSpace=wrap;connectable=0;strokeColor=inherit;overflow=hidden;fillColor=none;top=0;left=0;bottom=0;right=0;pointerEvents=1;" parent="4LRfEP6yBbV0RVpsH5g9-115" vertex="1">
          <mxGeometry x="60" width="60" height="40" as="geometry">
            <mxRectangle width="60" height="40" as="alternateBounds" />
          </mxGeometry>
        </mxCell>
        <mxCell id="4LRfEP6yBbV0RVpsH5g9-118" value="11" style="shape=partialRectangle;html=1;whiteSpace=wrap;connectable=0;strokeColor=inherit;overflow=hidden;fillColor=none;top=0;left=0;bottom=0;right=0;pointerEvents=1;" parent="4LRfEP6yBbV0RVpsH5g9-115" vertex="1">
          <mxGeometry x="120" width="60" height="40" as="geometry">
            <mxRectangle width="60" height="40" as="alternateBounds" />
          </mxGeometry>
        </mxCell>
        <mxCell id="4LRfEP6yBbV0RVpsH5g9-119" value="10" style="shape=partialRectangle;html=1;whiteSpace=wrap;connectable=0;strokeColor=inherit;overflow=hidden;fillColor=none;top=0;left=0;bottom=0;right=0;pointerEvents=1;" parent="4LRfEP6yBbV0RVpsH5g9-115" vertex="1">
          <mxGeometry x="180" width="60" height="40" as="geometry">
            <mxRectangle width="60" height="40" as="alternateBounds" />
          </mxGeometry>
        </mxCell>
        <mxCell id="4LRfEP6yBbV0RVpsH5g9-124" value="09-09:59" style="text;html=1;strokeColor=none;fillColor=none;align=center;verticalAlign=middle;whiteSpace=wrap;rounded=0;" parent="1" vertex="1">
          <mxGeometry x="240" y="1650" width="60" height="30" as="geometry" />
        </mxCell>
        <mxCell id="4LRfEP6yBbV0RVpsH5g9-125" value="10-10:59" style="text;html=1;strokeColor=none;fillColor=none;align=center;verticalAlign=middle;whiteSpace=wrap;rounded=0;" parent="1" vertex="1">
          <mxGeometry x="300" y="1650" width="60" height="30" as="geometry" />
        </mxCell>
        <mxCell id="4LRfEP6yBbV0RVpsH5g9-126" value="11-11:59" style="text;html=1;strokeColor=none;fillColor=none;align=center;verticalAlign=middle;whiteSpace=wrap;rounded=0;" parent="1" vertex="1">
          <mxGeometry x="360" y="1650" width="60" height="30" as="geometry" />
        </mxCell>
        <mxCell id="4LRfEP6yBbV0RVpsH5g9-127" value="12-12:59" style="text;html=1;strokeColor=none;fillColor=none;align=center;verticalAlign=middle;whiteSpace=wrap;rounded=0;" parent="1" vertex="1">
          <mxGeometry x="420" y="1650" width="60" height="30" as="geometry" />
        </mxCell>
        <mxCell id="4LRfEP6yBbV0RVpsH5g9-128" value="01.03" style="text;html=1;strokeColor=none;fillColor=none;align=center;verticalAlign=middle;whiteSpace=wrap;rounded=0;" parent="1" vertex="1">
          <mxGeometry x="170" y="1685" width="60" height="30" as="geometry" />
        </mxCell>
        <mxCell id="4LRfEP6yBbV0RVpsH5g9-129" value="" style="shape=table;startSize=0;container=1;collapsible=0;childLayout=tableLayout;fillColor=#fad9d5;strokeColor=#ae4132;" parent="1" vertex="1">
          <mxGeometry x="240" y="1740" width="240" height="40" as="geometry" />
        </mxCell>
        <mxCell id="4LRfEP6yBbV0RVpsH5g9-130" value="" style="shape=tableRow;horizontal=0;startSize=0;swimlaneHead=0;swimlaneBody=0;strokeColor=inherit;top=0;left=0;bottom=0;right=0;collapsible=0;dropTarget=0;fillColor=none;points=[[0,0.5],[1,0.5]];portConstraint=eastwest;" parent="4LRfEP6yBbV0RVpsH5g9-129" vertex="1">
          <mxGeometry width="240" height="40" as="geometry" />
        </mxCell>
        <mxCell id="4LRfEP6yBbV0RVpsH5g9-131" value="2" style="shape=partialRectangle;html=1;whiteSpace=wrap;connectable=0;strokeColor=inherit;overflow=hidden;fillColor=none;top=0;left=0;bottom=0;right=0;pointerEvents=1;" parent="4LRfEP6yBbV0RVpsH5g9-130" vertex="1">
          <mxGeometry width="60" height="40" as="geometry">
            <mxRectangle width="60" height="40" as="alternateBounds" />
          </mxGeometry>
        </mxCell>
        <mxCell id="4LRfEP6yBbV0RVpsH5g9-132" value="22" style="shape=partialRectangle;html=1;whiteSpace=wrap;connectable=0;strokeColor=inherit;overflow=hidden;fillColor=none;top=0;left=0;bottom=0;right=0;pointerEvents=1;" parent="4LRfEP6yBbV0RVpsH5g9-130" vertex="1">
          <mxGeometry x="60" width="60" height="40" as="geometry">
            <mxRectangle width="60" height="40" as="alternateBounds" />
          </mxGeometry>
        </mxCell>
        <mxCell id="4LRfEP6yBbV0RVpsH5g9-133" value="19" style="shape=partialRectangle;html=1;whiteSpace=wrap;connectable=0;strokeColor=inherit;overflow=hidden;fillColor=none;top=0;left=0;bottom=0;right=0;pointerEvents=1;" parent="4LRfEP6yBbV0RVpsH5g9-130" vertex="1">
          <mxGeometry x="120" width="60" height="40" as="geometry">
            <mxRectangle width="60" height="40" as="alternateBounds" />
          </mxGeometry>
        </mxCell>
        <mxCell id="4LRfEP6yBbV0RVpsH5g9-134" value="15" style="shape=partialRectangle;html=1;whiteSpace=wrap;connectable=0;strokeColor=inherit;overflow=hidden;fillColor=none;top=0;left=0;bottom=0;right=0;pointerEvents=1;" parent="4LRfEP6yBbV0RVpsH5g9-130" vertex="1">
          <mxGeometry x="180" width="60" height="40" as="geometry">
            <mxRectangle width="60" height="40" as="alternateBounds" />
          </mxGeometry>
        </mxCell>
        <mxCell id="4LRfEP6yBbV0RVpsH5g9-135" value="" style="shape=table;startSize=0;container=1;collapsible=0;childLayout=tableLayout;fillColor=#d5e8d4;gradientColor=#97d077;strokeColor=#82b366;" parent="1" vertex="1">
          <mxGeometry x="240" y="1800" width="180" height="40" as="geometry" />
        </mxCell>
        <mxCell id="4LRfEP6yBbV0RVpsH5g9-136" value="" style="shape=tableRow;horizontal=0;startSize=0;swimlaneHead=0;swimlaneBody=0;strokeColor=inherit;top=0;left=0;bottom=0;right=0;collapsible=0;dropTarget=0;fillColor=none;points=[[0,0.5],[1,0.5]];portConstraint=eastwest;" parent="4LRfEP6yBbV0RVpsH5g9-135" vertex="1">
          <mxGeometry width="180" height="40" as="geometry" />
        </mxCell>
        <mxCell id="4LRfEP6yBbV0RVpsH5g9-137" value="0" style="shape=partialRectangle;html=1;whiteSpace=wrap;connectable=0;strokeColor=inherit;overflow=hidden;fillColor=none;top=0;left=0;bottom=0;right=0;pointerEvents=1;" parent="4LRfEP6yBbV0RVpsH5g9-136" vertex="1">
          <mxGeometry width="60" height="40" as="geometry">
            <mxRectangle width="60" height="40" as="alternateBounds" />
          </mxGeometry>
        </mxCell>
        <mxCell id="4LRfEP6yBbV0RVpsH5g9-138" value="3" style="shape=partialRectangle;html=1;whiteSpace=wrap;connectable=0;strokeColor=inherit;overflow=hidden;fillColor=none;top=0;left=0;bottom=0;right=0;pointerEvents=1;" parent="4LRfEP6yBbV0RVpsH5g9-136" vertex="1">
          <mxGeometry x="60" width="60" height="40" as="geometry">
            <mxRectangle width="60" height="40" as="alternateBounds" />
          </mxGeometry>
        </mxCell>
        <mxCell id="4LRfEP6yBbV0RVpsH5g9-139" value="5" style="shape=partialRectangle;html=1;whiteSpace=wrap;connectable=0;strokeColor=inherit;overflow=hidden;fillColor=none;top=0;left=0;bottom=0;right=0;pointerEvents=1;" parent="4LRfEP6yBbV0RVpsH5g9-136" vertex="1">
          <mxGeometry x="120" width="60" height="40" as="geometry">
            <mxRectangle width="60" height="40" as="alternateBounds" />
          </mxGeometry>
        </mxCell>
        <mxCell id="4LRfEP6yBbV0RVpsH5g9-141" value="02.03" style="text;html=1;strokeColor=none;fillColor=none;align=center;verticalAlign=middle;whiteSpace=wrap;rounded=0;" parent="1" vertex="1">
          <mxGeometry x="170" y="1745" width="60" height="30" as="geometry" />
        </mxCell>
        <mxCell id="4LRfEP6yBbV0RVpsH5g9-142" value="03.03" style="text;html=1;strokeColor=none;fillColor=none;align=center;verticalAlign=middle;whiteSpace=wrap;rounded=0;" parent="1" vertex="1">
          <mxGeometry x="170" y="1805" width="60" height="30" as="geometry" />
        </mxCell>
        <mxCell id="4LRfEP6yBbV0RVpsH5g9-143" value="0" style="text;html=1;strokeColor=none;fillColor=none;align=center;verticalAlign=middle;whiteSpace=wrap;rounded=0;fontStyle=1" parent="1" vertex="1">
          <mxGeometry x="110" y="1685" width="60" height="30" as="geometry" />
        </mxCell>
        <mxCell id="4LRfEP6yBbV0RVpsH5g9-144" value="1" style="text;html=1;strokeColor=none;fillColor=none;align=center;verticalAlign=middle;whiteSpace=wrap;rounded=0;fontStyle=1" parent="1" vertex="1">
          <mxGeometry x="110" y="1745" width="60" height="30" as="geometry" />
        </mxCell>
        <mxCell id="4LRfEP6yBbV0RVpsH5g9-145" value="2" style="text;html=1;strokeColor=none;fillColor=none;align=center;verticalAlign=middle;whiteSpace=wrap;rounded=0;fontStyle=1" parent="1" vertex="1">
          <mxGeometry x="110" y="1805" width="60" height="30" as="geometry" />
        </mxCell>
        <mxCell id="4LRfEP6yBbV0RVpsH5g9-146" value="0" style="text;html=1;strokeColor=none;fillColor=none;align=center;verticalAlign=middle;whiteSpace=wrap;rounded=0;fontStyle=1" parent="1" vertex="1">
          <mxGeometry x="240" y="1620" width="60" height="30" as="geometry" />
        </mxCell>
        <mxCell id="4LRfEP6yBbV0RVpsH5g9-147" value="1" style="text;html=1;strokeColor=none;fillColor=none;align=center;verticalAlign=middle;whiteSpace=wrap;rounded=0;fontStyle=1" parent="1" vertex="1">
          <mxGeometry x="300" y="1620" width="60" height="30" as="geometry" />
        </mxCell>
        <mxCell id="4LRfEP6yBbV0RVpsH5g9-148" value="2" style="text;html=1;strokeColor=none;fillColor=none;align=center;verticalAlign=middle;whiteSpace=wrap;rounded=0;fontStyle=1" parent="1" vertex="1">
          <mxGeometry x="360" y="1620" width="60" height="30" as="geometry" />
        </mxCell>
        <mxCell id="4LRfEP6yBbV0RVpsH5g9-149" value="3" style="text;html=1;strokeColor=none;fillColor=none;align=center;verticalAlign=middle;whiteSpace=wrap;rounded=0;fontStyle=1" parent="1" vertex="1">
          <mxGeometry x="420" y="1620" width="60" height="30" as="geometry" />
        </mxCell>
        <mxCell id="4LRfEP6yBbV0RVpsH5g9-150" value="Die Live-Besucherzahlen eines Freizeitparks sind in einer Datentabelle gespeichert. FÃ¼r jedes Zeitfenster ist die Besucherzahl hinterlegt und das fÃ¼r jeden Tag des Monats." style="rounded=0;whiteSpace=wrap;html=1;align=left;verticalAlign=top;fillColor=#fff2cc;strokeColor=#d6b656;" parent="1" vertex="1">
          <mxGeometry x="620" y="1670" width="200" height="150" as="geometry" />
        </mxCell>
        <mxCell id="4LRfEP6yBbV0RVpsH5g9-153" style="edgeStyle=orthogonalEdgeStyle;rounded=0;orthogonalLoop=1;jettySize=auto;html=1;dashed=1;endArrow=classicThin;endFill=1;" parent="1" source="4LRfEP6yBbV0RVpsH5g9-152" target="4LRfEP6yBbV0RVpsH5g9-136" edge="1">
          <mxGeometry relative="1" as="geometry" />
        </mxCell>
        <mxCell id="4LRfEP6yBbV0RVpsH5g9-152" value="data[2]" style="text;html=1;strokeColor=none;fillColor=none;align=left;verticalAlign=middle;whiteSpace=wrap;rounded=0;" parent="1" vertex="1">
          <mxGeometry x="420" y="1870" width="60" height="30" as="geometry" />
        </mxCell>
        <mxCell id="4LRfEP6yBbV0RVpsH5g9-155" style="edgeStyle=orthogonalEdgeStyle;rounded=0;orthogonalLoop=1;jettySize=auto;html=1;dashed=1;endArrow=classicThin;endFill=1;" parent="1" source="4LRfEP6yBbV0RVpsH5g9-154" target="4LRfEP6yBbV0RVpsH5g9-130" edge="1">
          <mxGeometry relative="1" as="geometry" />
        </mxCell>
        <mxCell id="4LRfEP6yBbV0RVpsH5g9-154" value="data[1]" style="text;html=1;strokeColor=none;fillColor=none;align=left;verticalAlign=middle;whiteSpace=wrap;rounded=0;" parent="1" vertex="1">
          <mxGeometry x="520" y="1745" width="60" height="30" as="geometry" />
        </mxCell>
        <mxCell id="4LRfEP6yBbV0RVpsH5g9-157" style="edgeStyle=orthogonalEdgeStyle;rounded=0;orthogonalLoop=1;jettySize=auto;html=1;dashed=1;endArrow=classicThin;endFill=1;" parent="1" source="4LRfEP6yBbV0RVpsH5g9-156" target="4LRfEP6yBbV0RVpsH5g9-115" edge="1">
          <mxGeometry relative="1" as="geometry" />
        </mxCell>
        <mxCell id="4LRfEP6yBbV0RVpsH5g9-156" value="data[0]" style="text;html=1;strokeColor=none;fillColor=none;align=left;verticalAlign=middle;whiteSpace=wrap;rounded=0;" parent="1" vertex="1">
          <mxGeometry x="520" y="1685" width="60" height="30" as="geometry" />
        </mxCell>
        <mxCell id="4LRfEP6yBbV0RVpsH5g9-159" style="edgeStyle=orthogonalEdgeStyle;rounded=0;orthogonalLoop=1;jettySize=auto;html=1;entryX=1;entryY=0.75;entryDx=0;entryDy=0;dashed=1;endArrow=classicThin;endFill=1;" parent="1" source="4LRfEP6yBbV0RVpsH5g9-158" target="4LRfEP6yBbV0RVpsH5g9-151" edge="1">
          <mxGeometry relative="1" as="geometry" />
        </mxCell>
        <mxCell id="4LRfEP6yBbV0RVpsH5g9-158" value="data" style="text;html=1;strokeColor=none;fillColor=none;align=left;verticalAlign=middle;whiteSpace=wrap;rounded=0;" parent="1" vertex="1">
          <mxGeometry x="540" y="1805" width="60" height="30" as="geometry" />
        </mxCell>
        <mxCell id="4LRfEP6yBbV0RVpsH5g9-161" style="edgeStyle=orthogonalEdgeStyle;shape=connector;rounded=0;orthogonalLoop=1;jettySize=auto;html=1;dashed=1;labelBackgroundColor=default;strokeColor=default;align=center;verticalAlign=middle;fontFamily=Helvetica;fontSize=11;fontColor=default;endArrow=classicThin;endFill=1;" parent="1" source="4LRfEP6yBbV0RVpsH5g9-160" edge="1">
          <mxGeometry relative="1" as="geometry">
            <mxPoint x="330.1428571428571" y="1832.2857142857142" as="targetPoint" />
          </mxGeometry>
        </mxCell>
        <mxCell id="4LRfEP6yBbV0RVpsH5g9-160" value="data[2][1]" style="text;html=1;strokeColor=none;fillColor=none;align=left;verticalAlign=middle;whiteSpace=wrap;rounded=0;" parent="1" vertex="1">
          <mxGeometry x="300" y="1870" width="60" height="30" as="geometry" />
        </mxCell>
        <mxCell id="QUayfEnjAIlqLiUbJ1vw-3" value="&quot;max&quot;&lt;br&gt;String-Objekt mit ID = 678001" style="rounded=1;whiteSpace=wrap;html=1;fillColor=#b1ddf0;strokeColor=#10739e;" vertex="1" parent="1">
          <mxGeometry x="520" y="1020" width="120" height="60" as="geometry" />
        </mxCell>
        <mxCell id="QUayfEnjAIlqLiUbJ1vw-8" style="edgeStyle=orthogonalEdgeStyle;rounded=0;orthogonalLoop=1;jettySize=auto;html=1;" edge="1" parent="1" source="QUayfEnjAIlqLiUbJ1vw-4" target="QUayfEnjAIlqLiUbJ1vw-3">
          <mxGeometry relative="1" as="geometry" />
        </mxCell>
        <mxCell id="QUayfEnjAIlqLiUbJ1vw-4" value="ID 678001" style="whiteSpace=wrap;html=1;aspect=fixed;fillColor=#d5e8d4;strokeColor=#82b366;" vertex="1" parent="1">
          <mxGeometry x="540" y="890" width="80" height="80" as="geometry" />
        </mxCell>
        <mxCell id="QUayfEnjAIlqLiUbJ1vw-5" value="a" style="text;html=1;strokeColor=none;fillColor=none;align=center;verticalAlign=middle;whiteSpace=wrap;rounded=0;" vertex="1" parent="1">
          <mxGeometry x="550" y="860" width="60" height="30" as="geometry" />
        </mxCell>
        <mxCell id="QUayfEnjAIlqLiUbJ1vw-11" style="edgeStyle=orthogonalEdgeStyle;rounded=0;orthogonalLoop=1;jettySize=auto;html=1;" edge="1" parent="1" source="QUayfEnjAIlqLiUbJ1vw-6" target="QUayfEnjAIlqLiUbJ1vw-10">
          <mxGeometry relative="1" as="geometry" />
        </mxCell>
        <mxCell id="QUayfEnjAIlqLiUbJ1vw-6" value="ID 999666" style="whiteSpace=wrap;html=1;aspect=fixed;fillColor=#f8cecc;strokeColor=#b85450;" vertex="1" parent="1">
          <mxGeometry x="690" y="890" width="80" height="80" as="geometry" />
        </mxCell>
        <mxCell id="QUayfEnjAIlqLiUbJ1vw-7" value="b" style="text;html=1;strokeColor=none;fillColor=none;align=center;verticalAlign=middle;whiteSpace=wrap;rounded=0;" vertex="1" parent="1">
          <mxGeometry x="700" y="860" width="60" height="30" as="geometry" />
        </mxCell>
        <mxCell id="QUayfEnjAIlqLiUbJ1vw-10" value="&quot;max&quot;&lt;br&gt;String-Objekt mit ID = 999666" style="rounded=1;whiteSpace=wrap;html=1;fillColor=#b1ddf0;strokeColor=#10739e;" vertex="1" parent="1">
          <mxGeometry x="670" y="1020" width="120" height="60" as="geometry" />
        </mxCell>
        <mxCell id="QUayfEnjAIlqLiUbJ1vw-19" value="" style="shape=table;startSize=0;container=1;collapsible=0;childLayout=tableLayout;fillColor=#ffff88;strokeColor=#36393d;" vertex="1" parent="1">
          <mxGeometry x="290" y="2000" width="180" height="40" as="geometry" />
        </mxCell>
        <mxCell id="QUayfEnjAIlqLiUbJ1vw-20" value="" style="shape=tableRow;horizontal=0;startSize=0;swimlaneHead=0;swimlaneBody=0;strokeColor=inherit;top=0;left=0;bottom=0;right=0;collapsible=0;dropTarget=0;fillColor=none;points=[[0,0.5],[1,0.5]];portConstraint=eastwest;" vertex="1" parent="QUayfEnjAIlqLiUbJ1vw-19">
          <mxGeometry width="180" height="40" as="geometry" />
        </mxCell>
        <mxCell id="QUayfEnjAIlqLiUbJ1vw-21" value="" style="shape=partialRectangle;html=1;whiteSpace=wrap;connectable=0;strokeColor=inherit;overflow=hidden;fillColor=none;top=0;left=0;bottom=0;right=0;pointerEvents=1;" vertex="1" parent="QUayfEnjAIlqLiUbJ1vw-20">
          <mxGeometry width="60" height="40" as="geometry">
            <mxRectangle width="60" height="40" as="alternateBounds" />
          </mxGeometry>
        </mxCell>
        <mxCell id="QUayfEnjAIlqLiUbJ1vw-22" value="" style="shape=partialRectangle;html=1;whiteSpace=wrap;connectable=0;strokeColor=inherit;overflow=hidden;fillColor=none;top=0;left=0;bottom=0;right=0;pointerEvents=1;" vertex="1" parent="QUayfEnjAIlqLiUbJ1vw-20">
          <mxGeometry x="60" width="60" height="40" as="geometry">
            <mxRectangle width="60" height="40" as="alternateBounds" />
          </mxGeometry>
        </mxCell>
        <mxCell id="QUayfEnjAIlqLiUbJ1vw-23" value="" style="shape=partialRectangle;html=1;whiteSpace=wrap;connectable=0;strokeColor=inherit;overflow=hidden;fillColor=none;top=0;left=0;bottom=0;right=0;pointerEvents=1;" vertex="1" parent="QUayfEnjAIlqLiUbJ1vw-20">
          <mxGeometry x="120" width="60" height="40" as="geometry">
            <mxRectangle width="60" height="40" as="alternateBounds" />
          </mxGeometry>
        </mxCell>
        <mxCell id="QUayfEnjAIlqLiUbJ1vw-36" value="" style="shape=table;startSize=0;container=1;collapsible=0;childLayout=tableLayout;fillColor=#b1ddf0;strokeColor=#10739e;" vertex="1" parent="1">
          <mxGeometry x="90" y="2090" width="240" height="40" as="geometry" />
        </mxCell>
        <mxCell id="QUayfEnjAIlqLiUbJ1vw-37" value="" style="shape=tableRow;horizontal=0;startSize=0;swimlaneHead=0;swimlaneBody=0;strokeColor=inherit;top=0;left=0;bottom=0;right=0;collapsible=0;dropTarget=0;fillColor=none;points=[[0,0.5],[1,0.5]];portConstraint=eastwest;" vertex="1" parent="QUayfEnjAIlqLiUbJ1vw-36">
          <mxGeometry width="240" height="40" as="geometry" />
        </mxCell>
        <mxCell id="QUayfEnjAIlqLiUbJ1vw-38" value="5" style="shape=partialRectangle;html=1;whiteSpace=wrap;connectable=0;strokeColor=inherit;overflow=hidden;fillColor=none;top=0;left=0;bottom=0;right=0;pointerEvents=1;" vertex="1" parent="QUayfEnjAIlqLiUbJ1vw-37">
          <mxGeometry width="60" height="40" as="geometry">
            <mxRectangle width="60" height="40" as="alternateBounds" />
          </mxGeometry>
        </mxCell>
        <mxCell id="QUayfEnjAIlqLiUbJ1vw-39" value="14" style="shape=partialRectangle;html=1;whiteSpace=wrap;connectable=0;strokeColor=inherit;overflow=hidden;fillColor=none;top=0;left=0;bottom=0;right=0;pointerEvents=1;" vertex="1" parent="QUayfEnjAIlqLiUbJ1vw-37">
          <mxGeometry x="60" width="60" height="40" as="geometry">
            <mxRectangle width="60" height="40" as="alternateBounds" />
          </mxGeometry>
        </mxCell>
        <mxCell id="QUayfEnjAIlqLiUbJ1vw-40" value="11" style="shape=partialRectangle;html=1;whiteSpace=wrap;connectable=0;strokeColor=inherit;overflow=hidden;fillColor=none;top=0;left=0;bottom=0;right=0;pointerEvents=1;" vertex="1" parent="QUayfEnjAIlqLiUbJ1vw-37">
          <mxGeometry x="120" width="60" height="40" as="geometry">
            <mxRectangle width="60" height="40" as="alternateBounds" />
          </mxGeometry>
        </mxCell>
        <mxCell id="QUayfEnjAIlqLiUbJ1vw-41" value="10" style="shape=partialRectangle;html=1;whiteSpace=wrap;connectable=0;strokeColor=inherit;overflow=hidden;fillColor=none;top=0;left=0;bottom=0;right=0;pointerEvents=1;" vertex="1" parent="QUayfEnjAIlqLiUbJ1vw-37">
          <mxGeometry x="180" width="60" height="40" as="geometry">
            <mxRectangle width="60" height="40" as="alternateBounds" />
          </mxGeometry>
        </mxCell>
        <mxCell id="QUayfEnjAIlqLiUbJ1vw-42" value="" style="shape=table;startSize=0;container=1;collapsible=0;childLayout=tableLayout;fillColor=#d5e8d4;gradientColor=#97d077;strokeColor=#82b366;" vertex="1" parent="1">
          <mxGeometry x="450" y="2090" width="180" height="40" as="geometry" />
        </mxCell>
        <mxCell id="QUayfEnjAIlqLiUbJ1vw-43" value="" style="shape=tableRow;horizontal=0;startSize=0;swimlaneHead=0;swimlaneBody=0;strokeColor=inherit;top=0;left=0;bottom=0;right=0;collapsible=0;dropTarget=0;fillColor=none;points=[[0,0.5],[1,0.5]];portConstraint=eastwest;" vertex="1" parent="QUayfEnjAIlqLiUbJ1vw-42">
          <mxGeometry width="180" height="40" as="geometry" />
        </mxCell>
        <mxCell id="QUayfEnjAIlqLiUbJ1vw-44" value="0" style="shape=partialRectangle;html=1;whiteSpace=wrap;connectable=0;strokeColor=inherit;overflow=hidden;fillColor=none;top=0;left=0;bottom=0;right=0;pointerEvents=1;" vertex="1" parent="QUayfEnjAIlqLiUbJ1vw-43">
          <mxGeometry width="60" height="40" as="geometry">
            <mxRectangle width="60" height="40" as="alternateBounds" />
          </mxGeometry>
        </mxCell>
        <mxCell id="QUayfEnjAIlqLiUbJ1vw-45" value="3" style="shape=partialRectangle;html=1;whiteSpace=wrap;connectable=0;strokeColor=inherit;overflow=hidden;fillColor=none;top=0;left=0;bottom=0;right=0;pointerEvents=1;" vertex="1" parent="QUayfEnjAIlqLiUbJ1vw-43">
          <mxGeometry x="60" width="60" height="40" as="geometry">
            <mxRectangle width="60" height="40" as="alternateBounds" />
          </mxGeometry>
        </mxCell>
        <mxCell id="QUayfEnjAIlqLiUbJ1vw-46" value="5" style="shape=partialRectangle;html=1;whiteSpace=wrap;connectable=0;strokeColor=inherit;overflow=hidden;fillColor=none;top=0;left=0;bottom=0;right=0;pointerEvents=1;" vertex="1" parent="QUayfEnjAIlqLiUbJ1vw-43">
          <mxGeometry x="120" width="60" height="40" as="geometry">
            <mxRectangle width="60" height="40" as="alternateBounds" />
          </mxGeometry>
        </mxCell>
        <mxCell id="QUayfEnjAIlqLiUbJ1vw-47" value="data" style="text;html=1;strokeColor=none;fillColor=none;align=left;verticalAlign=middle;whiteSpace=wrap;rounded=0;" vertex="1" parent="1">
          <mxGeometry x="480" y="2005" width="30" height="30" as="geometry" />
        </mxCell>
        <mxCell id="QUayfEnjAIlqLiUbJ1vw-48" value="data[0]" style="text;html=1;strokeColor=none;fillColor=none;align=left;verticalAlign=middle;whiteSpace=wrap;rounded=0;" vertex="1" parent="1">
          <mxGeometry x="40" y="2095" width="50" height="30" as="geometry" />
        </mxCell>
        <mxCell id="QUayfEnjAIlqLiUbJ1vw-49" value="data[1]" style="text;html=1;strokeColor=none;fillColor=none;align=left;verticalAlign=middle;whiteSpace=wrap;rounded=0;" vertex="1" parent="1">
          <mxGeometry x="525" y="2185" width="50" height="30" as="geometry" />
        </mxCell>
        <mxCell id="QUayfEnjAIlqLiUbJ1vw-50" value="data[2]" style="text;html=1;strokeColor=none;fillColor=none;align=left;verticalAlign=middle;whiteSpace=wrap;rounded=0;" vertex="1" parent="1">
          <mxGeometry x="640" y="2095" width="50" height="30" as="geometry" />
        </mxCell>
        <mxCell id="QUayfEnjAIlqLiUbJ1vw-51" value="" style="endArrow=classic;html=1;rounded=0;startArrow=oval;startFill=1;" edge="1" parent="1" target="QUayfEnjAIlqLiUbJ1vw-37">
          <mxGeometry width="50" height="50" relative="1" as="geometry">
            <mxPoint x="319" y="2021" as="sourcePoint" />
            <mxPoint x="280" y="2010" as="targetPoint" />
          </mxGeometry>
        </mxCell>
        <mxCell id="QUayfEnjAIlqLiUbJ1vw-52" value="" style="endArrow=classic;html=1;rounded=0;startArrow=oval;startFill=1;" edge="1" parent="1" target="QUayfEnjAIlqLiUbJ1vw-31">
          <mxGeometry width="50" height="50" relative="1" as="geometry">
            <mxPoint x="383" y="2022" as="sourcePoint" />
            <mxPoint x="244" y="2100" as="targetPoint" />
          </mxGeometry>
        </mxCell>
        <mxCell id="QUayfEnjAIlqLiUbJ1vw-53" value="" style="endArrow=classic;html=1;rounded=0;startArrow=oval;startFill=1;" edge="1" parent="1" target="QUayfEnjAIlqLiUbJ1vw-43">
          <mxGeometry width="50" height="50" relative="1" as="geometry">
            <mxPoint x="438" y="2024" as="sourcePoint" />
            <mxPoint x="408" y="2170" as="targetPoint" />
          </mxGeometry>
        </mxCell>
        <mxCell id="QUayfEnjAIlqLiUbJ1vw-60" value="0" style="text;html=1;strokeColor=none;fillColor=none;align=center;verticalAlign=middle;whiteSpace=wrap;rounded=0;" vertex="1" parent="1">
          <mxGeometry x="90" y="2130" width="60" height="30" as="geometry" />
        </mxCell>
        <mxCell id="QUayfEnjAIlqLiUbJ1vw-61" value="1" style="text;html=1;strokeColor=none;fillColor=none;align=center;verticalAlign=middle;whiteSpace=wrap;rounded=0;" vertex="1" parent="1">
          <mxGeometry x="150" y="2130" width="60" height="30" as="geometry" />
        </mxCell>
        <mxCell id="QUayfEnjAIlqLiUbJ1vw-62" value="2" style="text;html=1;strokeColor=none;fillColor=none;align=center;verticalAlign=middle;whiteSpace=wrap;rounded=0;" vertex="1" parent="1">
          <mxGeometry x="210" y="2130" width="60" height="30" as="geometry" />
        </mxCell>
        <mxCell id="QUayfEnjAIlqLiUbJ1vw-63" value="3" style="text;html=1;strokeColor=none;fillColor=none;align=center;verticalAlign=middle;whiteSpace=wrap;rounded=0;" vertex="1" parent="1">
          <mxGeometry x="270" y="2130" width="60" height="30" as="geometry" />
        </mxCell>
        <mxCell id="QUayfEnjAIlqLiUbJ1vw-30" value="" style="shape=table;startSize=0;container=1;collapsible=0;childLayout=tableLayout;fillColor=#fad9d5;strokeColor=#ae4132;" vertex="1" parent="1">
          <mxGeometry x="280" y="2180" width="240" height="40" as="geometry" />
        </mxCell>
        <mxCell id="QUayfEnjAIlqLiUbJ1vw-31" value="" style="shape=tableRow;horizontal=0;startSize=0;swimlaneHead=0;swimlaneBody=0;strokeColor=inherit;top=0;left=0;bottom=0;right=0;collapsible=0;dropTarget=0;fillColor=none;points=[[0,0.5],[1,0.5]];portConstraint=eastwest;" vertex="1" parent="QUayfEnjAIlqLiUbJ1vw-30">
          <mxGeometry width="240" height="40" as="geometry" />
        </mxCell>
        <mxCell id="QUayfEnjAIlqLiUbJ1vw-32" value="2" style="shape=partialRectangle;html=1;whiteSpace=wrap;connectable=0;strokeColor=inherit;overflow=hidden;fillColor=none;top=0;left=0;bottom=0;right=0;pointerEvents=1;" vertex="1" parent="QUayfEnjAIlqLiUbJ1vw-31">
          <mxGeometry width="60" height="40" as="geometry">
            <mxRectangle width="60" height="40" as="alternateBounds" />
          </mxGeometry>
        </mxCell>
        <mxCell id="QUayfEnjAIlqLiUbJ1vw-33" value="22" style="shape=partialRectangle;html=1;whiteSpace=wrap;connectable=0;strokeColor=inherit;overflow=hidden;fillColor=none;top=0;left=0;bottom=0;right=0;pointerEvents=1;" vertex="1" parent="QUayfEnjAIlqLiUbJ1vw-31">
          <mxGeometry x="60" width="60" height="40" as="geometry">
            <mxRectangle width="60" height="40" as="alternateBounds" />
          </mxGeometry>
        </mxCell>
        <mxCell id="QUayfEnjAIlqLiUbJ1vw-34" value="19" style="shape=partialRectangle;html=1;whiteSpace=wrap;connectable=0;strokeColor=inherit;overflow=hidden;fillColor=none;top=0;left=0;bottom=0;right=0;pointerEvents=1;" vertex="1" parent="QUayfEnjAIlqLiUbJ1vw-31">
          <mxGeometry x="120" width="60" height="40" as="geometry">
            <mxRectangle width="60" height="40" as="alternateBounds" />
          </mxGeometry>
        </mxCell>
        <mxCell id="QUayfEnjAIlqLiUbJ1vw-35" value="15" style="shape=partialRectangle;html=1;whiteSpace=wrap;connectable=0;strokeColor=inherit;overflow=hidden;fillColor=none;top=0;left=0;bottom=0;right=0;pointerEvents=1;" vertex="1" parent="QUayfEnjAIlqLiUbJ1vw-31">
          <mxGeometry x="180" width="60" height="40" as="geometry">
            <mxRectangle width="60" height="40" as="alternateBounds" />
          </mxGeometry>
        </mxCell>
        <mxCell id="QUayfEnjAIlqLiUbJ1vw-65" value="0" style="text;html=1;strokeColor=none;fillColor=none;align=center;verticalAlign=middle;whiteSpace=wrap;rounded=0;" vertex="1" parent="1">
          <mxGeometry x="280" y="2220" width="60" height="30" as="geometry" />
        </mxCell>
        <mxCell id="QUayfEnjAIlqLiUbJ1vw-66" value="1" style="text;html=1;strokeColor=none;fillColor=none;align=center;verticalAlign=middle;whiteSpace=wrap;rounded=0;" vertex="1" parent="1">
          <mxGeometry x="340" y="2220" width="60" height="30" as="geometry" />
        </mxCell>
        <mxCell id="QUayfEnjAIlqLiUbJ1vw-67" value="2" style="text;html=1;strokeColor=none;fillColor=none;align=center;verticalAlign=middle;whiteSpace=wrap;rounded=0;" vertex="1" parent="1">
          <mxGeometry x="400" y="2220" width="60" height="30" as="geometry" />
        </mxCell>
        <mxCell id="QUayfEnjAIlqLiUbJ1vw-68" value="3" style="text;html=1;strokeColor=none;fillColor=none;align=center;verticalAlign=middle;whiteSpace=wrap;rounded=0;" vertex="1" parent="1">
          <mxGeometry x="460" y="2220" width="60" height="30" as="geometry" />
        </mxCell>
        <mxCell id="QUayfEnjAIlqLiUbJ1vw-69" value="0" style="text;html=1;strokeColor=none;fillColor=none;align=center;verticalAlign=middle;whiteSpace=wrap;rounded=0;" vertex="1" parent="1">
          <mxGeometry x="450" y="2130" width="60" height="30" as="geometry" />
        </mxCell>
        <mxCell id="QUayfEnjAIlqLiUbJ1vw-70" value="1" style="text;html=1;strokeColor=none;fillColor=none;align=center;verticalAlign=middle;whiteSpace=wrap;rounded=0;" vertex="1" parent="1">
          <mxGeometry x="510" y="2130" width="60" height="30" as="geometry" />
        </mxCell>
        <mxCell id="QUayfEnjAIlqLiUbJ1vw-71" value="2" style="text;html=1;strokeColor=none;fillColor=none;align=center;verticalAlign=middle;whiteSpace=wrap;rounded=0;" vertex="1" parent="1">
          <mxGeometry x="570" y="2130" width="60" height="30" as="geometry" />
        </mxCell>
        <mxCell id="QUayfEnjAIlqLiUbJ1vw-73" value="0" style="text;html=1;strokeColor=none;fillColor=none;align=center;verticalAlign=middle;whiteSpace=wrap;rounded=0;" vertex="1" parent="1">
          <mxGeometry x="290" y="1970" width="60" height="30" as="geometry" />
        </mxCell>
        <mxCell id="QUayfEnjAIlqLiUbJ1vw-74" value="1" style="text;html=1;strokeColor=none;fillColor=none;align=center;verticalAlign=middle;whiteSpace=wrap;rounded=0;" vertex="1" parent="1">
          <mxGeometry x="350" y="1970" width="60" height="30" as="geometry" />
        </mxCell>
        <mxCell id="QUayfEnjAIlqLiUbJ1vw-75" value="2" style="text;html=1;strokeColor=none;fillColor=none;align=center;verticalAlign=middle;whiteSpace=wrap;rounded=0;" vertex="1" parent="1">
          <mxGeometry x="410" y="1970" width="60" height="30" as="geometry" />
        </mxCell>
        <mxCell id="QUayfEnjAIlqLiUbJ1vw-78" style="rounded=0;orthogonalLoop=1;jettySize=auto;html=1;dashed=1;" edge="1" parent="1" source="QUayfEnjAIlqLiUbJ1vw-77">
          <mxGeometry relative="1" as="geometry">
            <mxPoint x="308" y="2208" as="targetPoint" />
          </mxGeometry>
        </mxCell>
        <mxCell id="QUayfEnjAIlqLiUbJ1vw-77" value="data[1][0]" style="text;html=1;strokeColor=none;fillColor=none;align=left;verticalAlign=middle;whiteSpace=wrap;rounded=0;" vertex="1" parent="1">
          <mxGeometry x="215" y="2240" width="55" height="30" as="geometry" />
        </mxCell>
        <mxCell id="QUayfEnjAIlqLiUbJ1vw-97" value="" style="shape=table;startSize=0;container=1;collapsible=0;childLayout=tableLayout;fillColor=#ffff88;strokeColor=#36393d;" vertex="1" parent="1">
          <mxGeometry x="430" y="2530" width="180" height="40" as="geometry" />
        </mxCell>
        <mxCell id="QUayfEnjAIlqLiUbJ1vw-98" value="" style="shape=tableRow;horizontal=0;startSize=0;swimlaneHead=0;swimlaneBody=0;strokeColor=inherit;top=0;left=0;bottom=0;right=0;collapsible=0;dropTarget=0;fillColor=none;points=[[0,0.5],[1,0.5]];portConstraint=eastwest;" vertex="1" parent="QUayfEnjAIlqLiUbJ1vw-97">
          <mxGeometry width="180" height="40" as="geometry" />
        </mxCell>
        <mxCell id="QUayfEnjAIlqLiUbJ1vw-99" value="" style="shape=partialRectangle;html=1;whiteSpace=wrap;connectable=0;strokeColor=inherit;overflow=hidden;fillColor=none;top=0;left=0;bottom=0;right=0;pointerEvents=1;" vertex="1" parent="QUayfEnjAIlqLiUbJ1vw-98">
          <mxGeometry width="60" height="40" as="geometry">
            <mxRectangle width="60" height="40" as="alternateBounds" />
          </mxGeometry>
        </mxCell>
        <mxCell id="QUayfEnjAIlqLiUbJ1vw-100" value="" style="shape=partialRectangle;html=1;whiteSpace=wrap;connectable=0;strokeColor=inherit;overflow=hidden;fillColor=none;top=0;left=0;bottom=0;right=0;pointerEvents=1;" vertex="1" parent="QUayfEnjAIlqLiUbJ1vw-98">
          <mxGeometry x="60" width="60" height="40" as="geometry">
            <mxRectangle width="60" height="40" as="alternateBounds" />
          </mxGeometry>
        </mxCell>
        <mxCell id="QUayfEnjAIlqLiUbJ1vw-101" value="" style="shape=partialRectangle;html=1;whiteSpace=wrap;connectable=0;strokeColor=inherit;overflow=hidden;fillColor=none;top=0;left=0;bottom=0;right=0;pointerEvents=1;" vertex="1" parent="QUayfEnjAIlqLiUbJ1vw-98">
          <mxGeometry x="120" width="60" height="40" as="geometry">
            <mxRectangle width="60" height="40" as="alternateBounds" />
          </mxGeometry>
        </mxCell>
        <mxCell id="QUayfEnjAIlqLiUbJ1vw-102" value="data" style="text;html=1;strokeColor=none;fillColor=none;align=left;verticalAlign=middle;whiteSpace=wrap;rounded=0;" vertex="1" parent="1">
          <mxGeometry x="620" y="2535" width="30" height="30" as="geometry" />
        </mxCell>
        <mxCell id="QUayfEnjAIlqLiUbJ1vw-103" value="0" style="text;html=1;strokeColor=none;fillColor=none;align=center;verticalAlign=middle;whiteSpace=wrap;rounded=0;" vertex="1" parent="1">
          <mxGeometry x="430" y="2500" width="60" height="30" as="geometry" />
        </mxCell>
        <mxCell id="QUayfEnjAIlqLiUbJ1vw-104" value="1" style="text;html=1;strokeColor=none;fillColor=none;align=center;verticalAlign=middle;whiteSpace=wrap;rounded=0;" vertex="1" parent="1">
          <mxGeometry x="490" y="2500" width="60" height="30" as="geometry" />
        </mxCell>
        <mxCell id="QUayfEnjAIlqLiUbJ1vw-105" value="2" style="text;html=1;strokeColor=none;fillColor=none;align=center;verticalAlign=middle;whiteSpace=wrap;rounded=0;" vertex="1" parent="1">
          <mxGeometry x="550" y="2500" width="60" height="30" as="geometry" />
        </mxCell>
        <mxCell id="QUayfEnjAIlqLiUbJ1vw-112" value="" style="shape=table;startSize=0;container=1;collapsible=0;childLayout=tableLayout;fillColor=#ffcccc;strokeColor=#36393d;" vertex="1" parent="1">
          <mxGeometry x="450" y="2620" width="120" height="40" as="geometry" />
        </mxCell>
        <mxCell id="QUayfEnjAIlqLiUbJ1vw-113" value="" style="shape=tableRow;horizontal=0;startSize=0;swimlaneHead=0;swimlaneBody=0;strokeColor=inherit;top=0;left=0;bottom=0;right=0;collapsible=0;dropTarget=0;fillColor=none;points=[[0,0.5],[1,0.5]];portConstraint=eastwest;" vertex="1" parent="QUayfEnjAIlqLiUbJ1vw-112">
          <mxGeometry width="120" height="40" as="geometry" />
        </mxCell>
        <mxCell id="QUayfEnjAIlqLiUbJ1vw-114" value="" style="shape=partialRectangle;html=1;whiteSpace=wrap;connectable=0;strokeColor=inherit;overflow=hidden;fillColor=none;top=0;left=0;bottom=0;right=0;pointerEvents=1;" vertex="1" parent="QUayfEnjAIlqLiUbJ1vw-113">
          <mxGeometry width="60" height="40" as="geometry">
            <mxRectangle width="60" height="40" as="alternateBounds" />
          </mxGeometry>
        </mxCell>
        <mxCell id="QUayfEnjAIlqLiUbJ1vw-115" value="null" style="shape=partialRectangle;html=1;whiteSpace=wrap;connectable=0;strokeColor=inherit;overflow=hidden;fillColor=none;top=0;left=0;bottom=0;right=0;pointerEvents=1;" vertex="1" parent="QUayfEnjAIlqLiUbJ1vw-113">
          <mxGeometry x="60" width="60" height="40" as="geometry">
            <mxRectangle width="60" height="40" as="alternateBounds" />
          </mxGeometry>
        </mxCell>
        <mxCell id="QUayfEnjAIlqLiUbJ1vw-116" value="" style="shape=table;startSize=0;container=1;collapsible=0;childLayout=tableLayout;fillColor=#cdeb8b;strokeColor=#36393d;" vertex="1" parent="1">
          <mxGeometry x="660" y="2620" width="180" height="40" as="geometry" />
        </mxCell>
        <mxCell id="QUayfEnjAIlqLiUbJ1vw-117" value="" style="shape=tableRow;horizontal=0;startSize=0;swimlaneHead=0;swimlaneBody=0;strokeColor=inherit;top=0;left=0;bottom=0;right=0;collapsible=0;dropTarget=0;fillColor=none;points=[[0,0.5],[1,0.5]];portConstraint=eastwest;" vertex="1" parent="QUayfEnjAIlqLiUbJ1vw-116">
          <mxGeometry width="180" height="40" as="geometry" />
        </mxCell>
        <mxCell id="QUayfEnjAIlqLiUbJ1vw-118" value="null" style="shape=partialRectangle;html=1;whiteSpace=wrap;connectable=0;strokeColor=inherit;overflow=hidden;fillColor=none;top=0;left=0;bottom=0;right=0;pointerEvents=1;" vertex="1" parent="QUayfEnjAIlqLiUbJ1vw-117">
          <mxGeometry width="60" height="40" as="geometry">
            <mxRectangle width="60" height="40" as="alternateBounds" />
          </mxGeometry>
        </mxCell>
        <mxCell id="QUayfEnjAIlqLiUbJ1vw-119" value="" style="shape=partialRectangle;html=1;whiteSpace=wrap;connectable=0;strokeColor=inherit;overflow=hidden;fillColor=none;top=0;left=0;bottom=0;right=0;pointerEvents=1;" vertex="1" parent="QUayfEnjAIlqLiUbJ1vw-117">
          <mxGeometry x="60" width="60" height="40" as="geometry">
            <mxRectangle width="60" height="40" as="alternateBounds" />
          </mxGeometry>
        </mxCell>
        <mxCell id="QUayfEnjAIlqLiUbJ1vw-120" value="null" style="shape=partialRectangle;html=1;whiteSpace=wrap;connectable=0;strokeColor=inherit;overflow=hidden;fillColor=none;top=0;left=0;bottom=0;right=0;pointerEvents=1;" vertex="1" parent="QUayfEnjAIlqLiUbJ1vw-117">
          <mxGeometry x="120" width="60" height="40" as="geometry">
            <mxRectangle width="60" height="40" as="alternateBounds" />
          </mxGeometry>
        </mxCell>
        <mxCell id="QUayfEnjAIlqLiUbJ1vw-121" value="" style="shape=table;startSize=0;container=1;collapsible=0;childLayout=tableLayout;fillColor=#ffe6cc;strokeColor=#d79b00;" vertex="1" parent="1">
          <mxGeometry x="135" y="2730" width="180" height="40" as="geometry" />
        </mxCell>
        <mxCell id="QUayfEnjAIlqLiUbJ1vw-122" value="" style="shape=tableRow;horizontal=0;startSize=0;swimlaneHead=0;swimlaneBody=0;strokeColor=inherit;top=0;left=0;bottom=0;right=0;collapsible=0;dropTarget=0;fillColor=none;points=[[0,0.5],[1,0.5]];portConstraint=eastwest;" vertex="1" parent="QUayfEnjAIlqLiUbJ1vw-121">
          <mxGeometry width="180" height="40" as="geometry" />
        </mxCell>
        <mxCell id="QUayfEnjAIlqLiUbJ1vw-123" value="1" style="shape=partialRectangle;html=1;whiteSpace=wrap;connectable=0;strokeColor=inherit;overflow=hidden;fillColor=none;top=0;left=0;bottom=0;right=0;pointerEvents=1;" vertex="1" parent="QUayfEnjAIlqLiUbJ1vw-122">
          <mxGeometry width="60" height="40" as="geometry">
            <mxRectangle width="60" height="40" as="alternateBounds" />
          </mxGeometry>
        </mxCell>
        <mxCell id="QUayfEnjAIlqLiUbJ1vw-124" value="2" style="shape=partialRectangle;html=1;whiteSpace=wrap;connectable=0;strokeColor=inherit;overflow=hidden;fillColor=none;top=0;left=0;bottom=0;right=0;pointerEvents=1;" vertex="1" parent="QUayfEnjAIlqLiUbJ1vw-122">
          <mxGeometry x="60" width="60" height="40" as="geometry">
            <mxRectangle width="60" height="40" as="alternateBounds" />
          </mxGeometry>
        </mxCell>
        <mxCell id="QUayfEnjAIlqLiUbJ1vw-125" value="3" style="shape=partialRectangle;html=1;whiteSpace=wrap;connectable=0;strokeColor=inherit;overflow=hidden;fillColor=none;top=0;left=0;bottom=0;right=0;pointerEvents=1;" vertex="1" parent="QUayfEnjAIlqLiUbJ1vw-122">
          <mxGeometry x="120" width="60" height="40" as="geometry">
            <mxRectangle width="60" height="40" as="alternateBounds" />
          </mxGeometry>
        </mxCell>
        <mxCell id="QUayfEnjAIlqLiUbJ1vw-126" value="" style="shape=table;startSize=0;container=1;collapsible=0;childLayout=tableLayout;fillColor=#e1d5e7;strokeColor=#9673a6;" vertex="1" parent="1">
          <mxGeometry x="350" y="2730" width="60" height="40" as="geometry" />
        </mxCell>
        <mxCell id="QUayfEnjAIlqLiUbJ1vw-127" value="" style="shape=tableRow;horizontal=0;startSize=0;swimlaneHead=0;swimlaneBody=0;strokeColor=inherit;top=0;left=0;bottom=0;right=0;collapsible=0;dropTarget=0;fillColor=none;points=[[0,0.5],[1,0.5]];portConstraint=eastwest;" vertex="1" parent="QUayfEnjAIlqLiUbJ1vw-126">
          <mxGeometry width="60" height="40" as="geometry" />
        </mxCell>
        <mxCell id="QUayfEnjAIlqLiUbJ1vw-128" value="99" style="shape=partialRectangle;html=1;whiteSpace=wrap;connectable=0;strokeColor=inherit;overflow=hidden;fillColor=none;top=0;left=0;bottom=0;right=0;pointerEvents=1;" vertex="1" parent="QUayfEnjAIlqLiUbJ1vw-127">
          <mxGeometry width="60" height="40" as="geometry">
            <mxRectangle width="60" height="40" as="alternateBounds" />
          </mxGeometry>
        </mxCell>
        <mxCell id="QUayfEnjAIlqLiUbJ1vw-131" value="" style="shape=table;startSize=0;container=1;collapsible=0;childLayout=tableLayout;fillColor=#f5f5f5;strokeColor=#666666;fontColor=#333333;" vertex="1" parent="1">
          <mxGeometry x="470" y="2730" width="120" height="40" as="geometry" />
        </mxCell>
        <mxCell id="QUayfEnjAIlqLiUbJ1vw-132" value="" style="shape=tableRow;horizontal=0;startSize=0;swimlaneHead=0;swimlaneBody=0;strokeColor=inherit;top=0;left=0;bottom=0;right=0;collapsible=0;dropTarget=0;fillColor=none;points=[[0,0.5],[1,0.5]];portConstraint=eastwest;" vertex="1" parent="QUayfEnjAIlqLiUbJ1vw-131">
          <mxGeometry width="120" height="40" as="geometry" />
        </mxCell>
        <mxCell id="QUayfEnjAIlqLiUbJ1vw-133" value="11" style="shape=partialRectangle;html=1;whiteSpace=wrap;connectable=0;strokeColor=inherit;overflow=hidden;fillColor=none;top=0;left=0;bottom=0;right=0;pointerEvents=1;" vertex="1" parent="QUayfEnjAIlqLiUbJ1vw-132">
          <mxGeometry width="60" height="40" as="geometry">
            <mxRectangle width="60" height="40" as="alternateBounds" />
          </mxGeometry>
        </mxCell>
        <mxCell id="QUayfEnjAIlqLiUbJ1vw-134" value="5" style="shape=partialRectangle;html=1;whiteSpace=wrap;connectable=0;strokeColor=inherit;overflow=hidden;fillColor=none;top=0;left=0;bottom=0;right=0;pointerEvents=1;" vertex="1" parent="QUayfEnjAIlqLiUbJ1vw-132">
          <mxGeometry x="60" width="60" height="40" as="geometry">
            <mxRectangle width="60" height="40" as="alternateBounds" />
          </mxGeometry>
        </mxCell>
        <mxCell id="QUayfEnjAIlqLiUbJ1vw-135" value="" style="endArrow=classic;html=1;rounded=0;startArrow=oval;startFill=1;" edge="1" parent="1" target="QUayfEnjAIlqLiUbJ1vw-107">
          <mxGeometry width="50" height="50" relative="1" as="geometry">
            <mxPoint x="458" y="2555" as="sourcePoint" />
            <mxPoint x="385" y="2678" as="targetPoint" />
          </mxGeometry>
        </mxCell>
        <mxCell id="QUayfEnjAIlqLiUbJ1vw-136" value="" style="endArrow=classic;html=1;rounded=0;startArrow=oval;startFill=1;" edge="1" parent="1" target="QUayfEnjAIlqLiUbJ1vw-113">
          <mxGeometry width="50" height="50" relative="1" as="geometry">
            <mxPoint x="523" y="2555" as="sourcePoint" />
            <mxPoint x="347" y="2610" as="targetPoint" />
          </mxGeometry>
        </mxCell>
        <mxCell id="QUayfEnjAIlqLiUbJ1vw-137" value="" style="endArrow=classic;html=1;rounded=0;startArrow=oval;startFill=1;" edge="1" parent="1" target="QUayfEnjAIlqLiUbJ1vw-117">
          <mxGeometry width="50" height="50" relative="1" as="geometry">
            <mxPoint x="581" y="2557" as="sourcePoint" />
            <mxPoint x="523" y="2630" as="targetPoint" />
          </mxGeometry>
        </mxCell>
        <mxCell id="QUayfEnjAIlqLiUbJ1vw-106" value="" style="shape=table;startSize=0;container=1;collapsible=0;childLayout=tableLayout;fillColor=#b1ddf0;strokeColor=#10739e;" vertex="1" parent="1">
          <mxGeometry x="225" y="2620" width="120" height="40" as="geometry" />
        </mxCell>
        <mxCell id="QUayfEnjAIlqLiUbJ1vw-107" value="" style="shape=tableRow;horizontal=0;startSize=0;swimlaneHead=0;swimlaneBody=0;strokeColor=inherit;top=0;left=0;bottom=0;right=0;collapsible=0;dropTarget=0;fillColor=none;points=[[0,0.5],[1,0.5]];portConstraint=eastwest;" vertex="1" parent="QUayfEnjAIlqLiUbJ1vw-106">
          <mxGeometry width="120" height="40" as="geometry" />
        </mxCell>
        <mxCell id="QUayfEnjAIlqLiUbJ1vw-108" value="" style="shape=partialRectangle;html=1;whiteSpace=wrap;connectable=0;strokeColor=inherit;overflow=hidden;fillColor=none;top=0;left=0;bottom=0;right=0;pointerEvents=1;" vertex="1" parent="QUayfEnjAIlqLiUbJ1vw-107">
          <mxGeometry width="60" height="40" as="geometry">
            <mxRectangle width="60" height="40" as="alternateBounds" />
          </mxGeometry>
        </mxCell>
        <mxCell id="QUayfEnjAIlqLiUbJ1vw-109" value="" style="shape=partialRectangle;html=1;whiteSpace=wrap;connectable=0;strokeColor=inherit;overflow=hidden;fillColor=none;top=0;left=0;bottom=0;right=0;pointerEvents=1;" vertex="1" parent="QUayfEnjAIlqLiUbJ1vw-107">
          <mxGeometry x="60" width="60" height="40" as="geometry">
            <mxRectangle width="60" height="40" as="alternateBounds" />
          </mxGeometry>
        </mxCell>
        <mxCell id="QUayfEnjAIlqLiUbJ1vw-138" value="" style="endArrow=classic;html=1;rounded=0;startArrow=oval;startFill=1;" edge="1" parent="1" target="QUayfEnjAIlqLiUbJ1vw-122">
          <mxGeometry width="50" height="50" relative="1" as="geometry">
            <mxPoint x="255" y="2644" as="sourcePoint" />
            <mxPoint x="336" y="2630" as="targetPoint" />
          </mxGeometry>
        </mxCell>
        <mxCell id="QUayfEnjAIlqLiUbJ1vw-139" value="" style="endArrow=classic;html=1;rounded=0;startArrow=oval;startFill=1;" edge="1" parent="1" target="QUayfEnjAIlqLiUbJ1vw-127">
          <mxGeometry width="50" height="50" relative="1" as="geometry">
            <mxPoint x="314" y="2643" as="sourcePoint" />
            <mxPoint x="241" y="2740" as="targetPoint" />
          </mxGeometry>
        </mxCell>
        <mxCell id="QUayfEnjAIlqLiUbJ1vw-140" value="" style="endArrow=classic;html=1;rounded=0;startArrow=oval;startFill=1;" edge="1" parent="1" target="QUayfEnjAIlqLiUbJ1vw-132">
          <mxGeometry width="50" height="50" relative="1" as="geometry">
            <mxPoint x="479" y="2643" as="sourcePoint" />
            <mxPoint x="523" y="2630" as="targetPoint" />
          </mxGeometry>
        </mxCell>
        <mxCell id="QUayfEnjAIlqLiUbJ1vw-145" value="" style="shape=table;startSize=0;container=1;collapsible=0;childLayout=tableLayout;" vertex="1" parent="1">
          <mxGeometry x="710" y="2730" width="120" height="40" as="geometry" />
        </mxCell>
        <mxCell id="QUayfEnjAIlqLiUbJ1vw-146" value="" style="shape=tableRow;horizontal=0;startSize=0;swimlaneHead=0;swimlaneBody=0;strokeColor=inherit;top=0;left=0;bottom=0;right=0;collapsible=0;dropTarget=0;fillColor=none;points=[[0,0.5],[1,0.5]];portConstraint=eastwest;" vertex="1" parent="QUayfEnjAIlqLiUbJ1vw-145">
          <mxGeometry width="120" height="40" as="geometry" />
        </mxCell>
        <mxCell id="QUayfEnjAIlqLiUbJ1vw-147" value="7" style="shape=partialRectangle;html=1;whiteSpace=wrap;connectable=0;strokeColor=inherit;overflow=hidden;fillColor=none;top=0;left=0;bottom=0;right=0;pointerEvents=1;" vertex="1" parent="QUayfEnjAIlqLiUbJ1vw-146">
          <mxGeometry width="60" height="40" as="geometry">
            <mxRectangle width="60" height="40" as="alternateBounds" />
          </mxGeometry>
        </mxCell>
        <mxCell id="QUayfEnjAIlqLiUbJ1vw-148" value="10" style="shape=partialRectangle;html=1;whiteSpace=wrap;connectable=0;strokeColor=inherit;overflow=hidden;fillColor=none;top=0;left=0;bottom=0;right=0;pointerEvents=1;" vertex="1" parent="QUayfEnjAIlqLiUbJ1vw-146">
          <mxGeometry x="60" width="60" height="40" as="geometry">
            <mxRectangle width="60" height="40" as="alternateBounds" />
          </mxGeometry>
        </mxCell>
        <mxCell id="QUayfEnjAIlqLiUbJ1vw-149" value="" style="endArrow=classic;html=1;rounded=0;startArrow=oval;startFill=1;" edge="1" parent="1" target="QUayfEnjAIlqLiUbJ1vw-146">
          <mxGeometry width="50" height="50" relative="1" as="geometry">
            <mxPoint x="754" y="2643" as="sourcePoint" />
            <mxPoint x="530" y="2740" as="targetPoint" />
          </mxGeometry>
        </mxCell>
        <mxCell id="QUayfEnjAIlqLiUbJ1vw-150" value="data[0]" style="text;html=1;strokeColor=none;fillColor=none;align=left;verticalAlign=middle;whiteSpace=wrap;rounded=0;" vertex="1" parent="1">
          <mxGeometry x="160" y="2625" width="40" height="30" as="geometry" />
        </mxCell>
        <mxCell id="QUayfEnjAIlqLiUbJ1vw-151" value="data[1]" style="text;html=1;strokeColor=none;fillColor=none;align=left;verticalAlign=middle;whiteSpace=wrap;rounded=0;" vertex="1" parent="1">
          <mxGeometry x="410" y="2625" width="40" height="30" as="geometry" />
        </mxCell>
        <mxCell id="QUayfEnjAIlqLiUbJ1vw-152" value="data[2]" style="text;html=1;strokeColor=none;fillColor=none;align=left;verticalAlign=middle;whiteSpace=wrap;rounded=0;" vertex="1" parent="1">
          <mxGeometry x="615" y="2625" width="40" height="30" as="geometry" />
        </mxCell>
        <mxCell id="QUayfEnjAIlqLiUbJ1vw-153" value="data[0][0]" style="text;html=1;strokeColor=none;fillColor=none;align=left;verticalAlign=middle;whiteSpace=wrap;rounded=0;" vertex="1" parent="1">
          <mxGeometry x="70" y="2735" width="60" height="30" as="geometry" />
        </mxCell>
        <mxCell id="QUayfEnjAIlqLiUbJ1vw-154" value="data[0][1]" style="text;html=1;strokeColor=none;fillColor=none;align=left;verticalAlign=middle;whiteSpace=wrap;rounded=0;" vertex="1" parent="1">
          <mxGeometry x="350" y="2770" width="60" height="30" as="geometry" />
        </mxCell>
        <mxCell id="QUayfEnjAIlqLiUbJ1vw-155" value="data[1][0]" style="text;html=1;strokeColor=none;fillColor=none;align=left;verticalAlign=middle;whiteSpace=wrap;rounded=0;" vertex="1" parent="1">
          <mxGeometry x="500" y="2770" width="60" height="30" as="geometry" />
        </mxCell>
        <mxCell id="QUayfEnjAIlqLiUbJ1vw-156" value="data[2][1]" style="text;html=1;strokeColor=none;fillColor=none;align=left;verticalAlign=middle;whiteSpace=wrap;rounded=0;" vertex="1" parent="1">
          <mxGeometry x="650" y="2735" width="60" height="30" as="geometry" />
        </mxCell>
        <mxCell id="QUayfEnjAIlqLiUbJ1vw-157" value="data[2][1][1]" style="text;html=1;strokeColor=none;fillColor=none;align=left;verticalAlign=middle;whiteSpace=wrap;rounded=0;" vertex="1" parent="1">
          <mxGeometry x="780" y="2800" width="70" height="30" as="geometry" />
        </mxCell>
        <mxCell id="QUayfEnjAIlqLiUbJ1vw-158" style="rounded=0;orthogonalLoop=1;jettySize=auto;html=1;dashed=1;" edge="1" parent="1" source="QUayfEnjAIlqLiUbJ1vw-157">
          <mxGeometry relative="1" as="geometry">
            <mxPoint x="750" y="2830" as="sourcePoint" />
            <mxPoint x="804" y="2763" as="targetPoint" />
          </mxGeometry>
        </mxCell>
        <mxCell id="QUayfEnjAIlqLiUbJ1vw-159" value="data[0][0][2]" style="text;html=1;strokeColor=none;fillColor=none;align=left;verticalAlign=middle;whiteSpace=wrap;rounded=0;" vertex="1" parent="1">
          <mxGeometry x="245" y="2810" width="70" height="30" as="geometry" />
        </mxCell>
        <mxCell id="QUayfEnjAIlqLiUbJ1vw-160" style="rounded=0;orthogonalLoop=1;jettySize=auto;html=1;dashed=1;" edge="1" parent="1" source="QUayfEnjAIlqLiUbJ1vw-159">
          <mxGeometry relative="1" as="geometry">
            <mxPoint x="304" y="2810" as="sourcePoint" />
            <mxPoint x="288" y="2761" as="targetPoint" />
          </mxGeometry>
        </mxCell>
        <mxCell id="QUayfEnjAIlqLiUbJ1vw-170" value="" style="shape=table;startSize=0;container=1;collapsible=0;childLayout=tableLayout;fillColor=#ffff88;strokeColor=#36393d;opacity=20;" vertex="1" parent="1">
          <mxGeometry x="152" y="2529" width="180" height="40" as="geometry" />
        </mxCell>
        <mxCell id="QUayfEnjAIlqLiUbJ1vw-171" value="" style="shape=tableRow;horizontal=0;startSize=0;swimlaneHead=0;swimlaneBody=0;strokeColor=inherit;top=0;left=0;bottom=0;right=0;collapsible=0;dropTarget=0;fillColor=none;points=[[0,0.5],[1,0.5]];portConstraint=eastwest;opacity=20;" vertex="1" parent="QUayfEnjAIlqLiUbJ1vw-170">
          <mxGeometry width="180" height="40" as="geometry" />
        </mxCell>
        <mxCell id="QUayfEnjAIlqLiUbJ1vw-172" value="" style="shape=partialRectangle;html=1;whiteSpace=wrap;connectable=0;strokeColor=inherit;overflow=hidden;fillColor=none;top=0;left=0;bottom=0;right=0;pointerEvents=1;opacity=20;" vertex="1" parent="QUayfEnjAIlqLiUbJ1vw-171">
          <mxGeometry width="60" height="40" as="geometry">
            <mxRectangle width="60" height="40" as="alternateBounds" />
          </mxGeometry>
        </mxCell>
        <mxCell id="QUayfEnjAIlqLiUbJ1vw-173" value="" style="shape=partialRectangle;html=1;whiteSpace=wrap;connectable=0;strokeColor=inherit;overflow=hidden;fillColor=none;top=0;left=0;bottom=0;right=0;pointerEvents=1;opacity=20;" vertex="1" parent="QUayfEnjAIlqLiUbJ1vw-171">
          <mxGeometry x="60" width="60" height="40" as="geometry">
            <mxRectangle width="60" height="40" as="alternateBounds" />
          </mxGeometry>
        </mxCell>
        <mxCell id="QUayfEnjAIlqLiUbJ1vw-174" value="" style="shape=partialRectangle;html=1;whiteSpace=wrap;connectable=0;strokeColor=inherit;overflow=hidden;fillColor=none;top=0;left=0;bottom=0;right=0;pointerEvents=1;opacity=20;" vertex="1" parent="QUayfEnjAIlqLiUbJ1vw-171">
          <mxGeometry x="120" width="60" height="40" as="geometry">
            <mxRectangle width="60" height="40" as="alternateBounds" />
          </mxGeometry>
        </mxCell>
        <mxCell id="QUayfEnjAIlqLiUbJ1vw-175" value="copy&amp;nbsp;of data" style="text;html=1;strokeColor=none;fillColor=none;align=left;verticalAlign=middle;whiteSpace=wrap;rounded=0;opacity=20;" vertex="1" parent="1">
          <mxGeometry x="80" y="2534" width="70" height="30" as="geometry" />
        </mxCell>
        <mxCell id="QUayfEnjAIlqLiUbJ1vw-176" value="0" style="text;html=1;strokeColor=none;fillColor=none;align=center;verticalAlign=middle;whiteSpace=wrap;rounded=0;opacity=20;" vertex="1" parent="1">
          <mxGeometry x="152" y="2499" width="60" height="30" as="geometry" />
        </mxCell>
        <mxCell id="QUayfEnjAIlqLiUbJ1vw-177" value="1" style="text;html=1;strokeColor=none;fillColor=none;align=center;verticalAlign=middle;whiteSpace=wrap;rounded=0;opacity=20;" vertex="1" parent="1">
          <mxGeometry x="212" y="2499" width="60" height="30" as="geometry" />
        </mxCell>
        <mxCell id="QUayfEnjAIlqLiUbJ1vw-178" value="2" style="text;html=1;strokeColor=none;fillColor=none;align=center;verticalAlign=middle;whiteSpace=wrap;rounded=0;opacity=20;" vertex="1" parent="1">
          <mxGeometry x="272" y="2499" width="60" height="30" as="geometry" />
        </mxCell>
        <mxCell id="QUayfEnjAIlqLiUbJ1vw-179" value="" style="endArrow=classic;html=1;rounded=0;startArrow=oval;startFill=1;opacity=20;" edge="1" parent="1" target="QUayfEnjAIlqLiUbJ1vw-107">
          <mxGeometry width="50" height="50" relative="1" as="geometry">
            <mxPoint x="184" y="2552" as="sourcePoint" />
            <mxPoint x="336" y="2630" as="targetPoint" />
          </mxGeometry>
        </mxCell>
        <mxCell id="QUayfEnjAIlqLiUbJ1vw-180" value="" style="endArrow=classic;html=1;rounded=0;startArrow=oval;startFill=1;opacity=20;" edge="1" parent="1" target="QUayfEnjAIlqLiUbJ1vw-113">
          <mxGeometry width="50" height="50" relative="1" as="geometry">
            <mxPoint x="245" y="2555" as="sourcePoint" />
            <mxPoint x="523" y="2630" as="targetPoint" />
          </mxGeometry>
        </mxCell>
        <mxCell id="QUayfEnjAIlqLiUbJ1vw-181" value="" style="endArrow=classic;html=1;rounded=0;startArrow=oval;startFill=1;opacity=20;" edge="1" parent="1" target="QUayfEnjAIlqLiUbJ1vw-117">
          <mxGeometry width="50" height="50" relative="1" as="geometry">
            <mxPoint x="303" y="2551" as="sourcePoint" />
            <mxPoint x="719" y="2630" as="targetPoint" />
          </mxGeometry>
        </mxCell>
      </root>
    </mxGraphModel>
  </diagram>
</mxfile>
